<svg width="22" height="22" viewBox="0 0 22 22" fill="none" xmlns="http://www.w3.org/2000/svg">
<path d="M20.9196 10.6C18.8996 5.91 15.0996 3 10.9996 3C6.89958 3 3.09958 5.91 1.07958 10.6C1.02452 10.7262 0.996094 10.8623 0.996094 11C0.996094 11.1377 1.02452 11.2738 1.07958 11.4C3.09958 16.09 6.89958 19 10.9996 19C15.0996 19 18.8996 16.09 20.9196 11.4C20.9746 11.2738 21.0031 11.1377 21.0031 11C21.0031 10.8623 20.9746 10.7262 20.9196 10.6ZM10.9996 17C7.82958 17 4.82958 14.71 3.09958 11C4.82958 7.29 7.82958 5 10.9996 5C14.1696 5 17.1696 7.29 18.8996 11C17.1696 14.71 14.1696 17 10.9996 17ZM10.9996 7C10.2085 7 9.43509 7.2346 8.7773 7.67412C8.1195 8.11365 7.60681 8.73836 7.30406 9.46927C7.00131 10.2002 6.9221 11.0044 7.07644 11.7804C7.23078 12.5563 7.61174 13.269 8.17115 13.8284C8.73056 14.3878 9.44329 14.7688 10.2192 14.9231C10.9951 15.0775 11.7994 14.9983 12.5303 14.6955C13.2612 14.3928 13.8859 13.8801 14.3255 13.2223C14.765 12.5645 14.9996 11.7911 14.9996 11C14.9996 9.93913 14.5782 8.92172 13.828 8.17157C13.0779 7.42143 12.0604 7 10.9996 7ZM10.9996 13C10.604 13 10.2173 12.8827 9.88844 12.6629C9.55954 12.4432 9.30319 12.1308 9.15182 11.7654C9.00044 11.3999 8.96084 10.9978 9.03801 10.6098C9.11518 10.2219 9.30566 9.86549 9.58537 9.58579C9.86507 9.30608 10.2214 9.1156 10.6094 9.03843C10.9974 8.96126 11.3995 9.00087 11.7649 9.15224C12.1304 9.30362 12.4428 9.55996 12.6625 9.88886C12.8823 10.2178 12.9996 10.6044 12.9996 11C12.9996 11.5304 12.7889 12.0391 12.4138 12.4142C12.0387 12.7893 11.53 13 10.9996 13Z" fill="#878787"/>
<line x1="1.41421" y1="1" x2="21" y2="20.5858" stroke="#878787" stroke-width="2" stroke-linecap="round"/>
</svg>
