<svg width="17" height="21" viewBox="0 0 17 21" fill="none" xmlns="http://www.w3.org/2000/svg">
<path d="M8.50065 11.4586C8.24649 11.4586 8.00273 11.5596 7.82301 11.7393C7.64328 11.919 7.54232 12.1628 7.54232 12.417V15.292C7.54232 15.5461 7.64328 15.7899 7.82301 15.9696C8.00273 16.1493 8.24649 16.2503 8.50065 16.2503C8.75482 16.2503 8.99857 16.1493 9.1783 15.9696C9.35802 15.7899 9.45898 15.5461 9.45898 15.292V12.417C9.45898 12.1628 9.35802 11.919 9.1783 11.7393C8.99857 11.5596 8.75482 11.4586 8.50065 11.4586ZM13.2923 7.62529H5.62565V5.70862C5.62425 5.13955 5.79177 4.58287 6.10698 4.10907C6.4222 3.63528 6.87093 3.26568 7.39635 3.0471C7.92176 2.82852 8.50023 2.77078 9.05849 2.8812C9.61674 2.99162 10.1297 3.26523 10.5323 3.66737C10.8926 4.03544 11.1503 4.49137 11.2798 4.98987C11.3113 5.11195 11.3665 5.22663 11.4423 5.32737C11.518 5.42811 11.6129 5.51294 11.7215 5.57702C11.8301 5.64109 11.9502 5.68315 12.075 5.7008C12.1998 5.71845 12.3269 5.71134 12.449 5.67987C12.5711 5.64841 12.6857 5.59321 12.7865 5.51743C12.8872 5.44164 12.9721 5.34676 13.0361 5.23819C13.1002 5.12963 13.1423 5.0095 13.1599 4.88468C13.1776 4.75986 13.1704 4.63278 13.139 4.51071C12.9207 3.68156 12.4876 2.9246 11.8836 2.31612C11.2129 1.64756 10.3592 1.1927 9.43019 1.009C8.50121 0.825292 7.53861 0.920972 6.66397 1.28396C5.78932 1.64694 5.04184 2.26095 4.51591 3.04846C3.98998 3.83596 3.70918 4.76165 3.70898 5.70862V7.62529C2.94649 7.62529 2.21522 7.92819 1.67605 8.46736C1.13689 9.00652 0.833984 9.73779 0.833984 10.5003V17.2086C0.833984 17.9711 1.13689 18.7024 1.67605 19.2416C2.21522 19.7807 2.94649 20.0836 3.70898 20.0836H13.2923C14.0548 20.0836 14.7861 19.7807 15.3252 19.2416C15.8644 18.7024 16.1673 17.9711 16.1673 17.2086V10.5003C16.1673 9.73779 15.8644 9.00652 15.3252 8.46736C14.7861 7.92819 14.0548 7.62529 13.2923 7.62529ZM14.2507 17.2086C14.2507 17.4628 14.1497 17.7065 13.97 17.8863C13.7902 18.066 13.5465 18.167 13.2923 18.167H3.70898C3.45482 18.167 3.21106 18.066 3.03134 17.8863C2.85162 17.7065 2.75065 17.4628 2.75065 17.2086V10.5003C2.75065 10.2461 2.85162 10.0024 3.03134 9.82265C3.21106 9.64292 3.45482 9.54196 3.70898 9.54196H13.2923C13.5465 9.54196 13.7902 9.64292 13.97 9.82265C14.1497 10.0024 14.2507 10.2461 14.2507 10.5003V17.2086Z" fill="#195C94"/>
</svg>
