<svg width="22" height="15" viewBox="0 0 22 15" fill="none" xmlns="http://www.w3.org/2000/svg">
<path d="M0 0H22V15H0V0Z" fill="#699635"/>
<path d="M10.9999 0.845703L19.7871 7.48605L10.9999 14.122L2.16992 7.48605L10.9999 0.845703Z" fill="#FFE62E"/>
<path d="M11.0007 11.0253C12.9049 11.0253 14.4486 9.4465 14.4486 7.49897C14.4486 5.55144 12.9049 3.97266 11.0007 3.97266C9.09644 3.97266 7.55273 5.55144 7.55273 7.49897C7.55273 9.4465 9.09644 11.0253 11.0007 11.0253Z" fill="white"/>
<path d="M9.6236 6.63867C8.88451 6.63867 8.19162 6.80402 7.56802 7.08748C7.54492 7.2292 7.54492 7.34731 7.54492 7.48904C7.54492 9.44961 9.09238 11.0322 11.0094 11.0322C12.3028 11.0322 13.4345 10.3 14.035 9.23702C13.1804 7.70163 11.5175 6.63867 9.6236 6.63867Z" fill="#428BC1"/>
<path d="M14.4289 8.0564C14.452 7.86743 14.4751 7.67846 14.4751 7.48949C14.4751 5.52892 12.9276 3.94629 11.0106 3.94629C9.6479 3.94629 8.46999 4.74941 7.89258 5.93048C8.44689 5.76513 9.0243 5.67065 9.62481 5.67065C11.588 5.67065 13.3202 6.6155 14.4289 8.0564Z" fill="#428BC1"/>
<path d="M9.62589 5.66797C9.02539 5.66797 8.44798 5.76245 7.89366 5.9278C7.73199 6.28212 7.61651 6.66006 7.57031 7.08525C8.19392 6.80179 8.88681 6.63644 9.62589 6.63644C11.5198 6.63644 13.1827 7.67578 14.0373 9.21117C14.2452 8.85685 14.3607 8.45529 14.4299 8.05372C13.3213 6.61282 11.5891 5.66797 9.62589 5.66797Z" fill="white"/>
<path d="M8.69971 7.7234C8.82727 7.7234 8.93068 7.61765 8.93068 7.48719C8.93068 7.35673 8.82727 7.25098 8.69971 7.25098C8.57216 7.25098 8.46875 7.35673 8.46875 7.48719C8.46875 7.61765 8.57216 7.7234 8.69971 7.7234Z" fill="white"/>
<path d="M9.6255 9.13942C9.75305 9.13942 9.85646 9.03366 9.85646 8.90321C9.85646 8.77275 9.75305 8.66699 9.6255 8.66699C9.49794 8.66699 9.39453 8.77275 9.39453 8.90321C9.39453 9.03366 9.49794 9.13942 9.6255 9.13942Z" fill="white"/>
<path d="M11.0103 9.13942C11.1378 9.13942 11.2412 9.03366 11.2412 8.90321C11.2412 8.77275 11.1378 8.66699 11.0103 8.66699C10.8827 8.66699 10.7793 8.77275 10.7793 8.90321C10.7793 9.03366 10.8827 9.13942 11.0103 9.13942Z" fill="white"/>
<path d="M11.0103 10.0857C11.1378 10.0857 11.2412 9.97995 11.2412 9.84949C11.2412 9.71904 11.1378 9.61328 11.0103 9.61328C10.8827 9.61328 10.7793 9.71904 10.7793 9.84949C10.7793 9.97995 10.8827 10.0857 11.0103 10.0857Z" fill="white"/>
<path d="M12.8599 9.13942C12.9874 9.13942 13.0908 9.03366 13.0908 8.90321C13.0908 8.77275 12.9874 8.66699 12.8599 8.66699C12.7323 8.66699 12.6289 8.77275 12.6289 8.90321C12.6289 9.03366 12.7323 9.13942 12.8599 9.13942Z" fill="white"/>
<path d="M12.8599 10.0857C12.9874 10.0857 13.0908 9.97995 13.0908 9.84949C13.0908 9.71904 12.9874 9.61328 12.8599 9.61328C12.7323 9.61328 12.6289 9.71904 12.6289 9.84949C12.6289 9.97995 12.7323 10.0857 12.8599 10.0857Z" fill="white"/>
<path d="M11.936 9.61305C12.0636 9.61305 12.167 9.50729 12.167 9.37684C12.167 9.24638 12.0636 9.14062 11.936 9.14062C11.8085 9.14062 11.7051 9.24638 11.7051 9.37684C11.7051 9.50729 11.8085 9.61305 11.936 9.61305Z" fill="white"/>
<path d="M8.69971 8.66969C8.82727 8.66969 8.93068 8.56394 8.93068 8.43348C8.93068 8.30302 8.82727 8.19727 8.69971 8.19727C8.57216 8.19727 8.46875 8.30302 8.46875 8.43348C8.46875 8.56394 8.57216 8.66969 8.69971 8.66969Z" fill="white"/>
</svg>
