<svg width="22" height="15" viewBox="0 0 22 15" fill="none" xmlns="http://www.w3.org/2000/svg">
<path d="M22 0H0V15H22V0Z" fill="#FAFAFA"/>
<path d="M22 6H12V7H22V6Z" fill="#EA4848"/>
<path d="M22 4H12V5H22V4Z" fill="#EA4848"/>
<path d="M22 2H12V3H22V2Z" fill="#EA4848"/>
<path d="M22 0H12V1H22V0Z" fill="#EA4848"/>
<path d="M22 8H0V9H22V8Z" fill="#EA4848"/>
<path d="M22 10H0V11H22V10Z" fill="#EA4848"/>
<path d="M22 12H0V13H22V12Z" fill="#EA4848"/>
<path d="M22 14H0V15H22V14Z" fill="#EA4848"/>
<path d="M12 0H0V8H12V0Z" fill="#195C94"/>
<path d="M1.78504 1L2.02641 1.512L2.56778 1.594L2.17583 1.994L2.26893 2.556L1.78389 2.291L1.29884 2.556L1.39194 1.994L1 1.594L1.54137 1.512L1.78504 1Z" fill="#FAFAFA"/>
<path d="M3.87463 1L4.116 1.512L4.65737 1.594L4.26543 1.994L4.35853 2.556L3.87348 2.291L3.38844 2.556L3.48154 1.994L3.08959 1.594L3.63096 1.512L3.87463 1Z" fill="#FAFAFA"/>
<path d="M5.96423 1L6.2056 1.512L6.74696 1.594L6.35502 1.994L6.44812 2.556L5.96308 2.291L5.47803 2.556L5.57113 1.994L5.17919 1.594L5.72055 1.512L5.96423 1Z" fill="#FAFAFA"/>
<path d="M8.05385 1L8.29523 1.512L8.83659 1.594L8.44465 1.994L8.53775 2.556L8.0527 2.291L7.56766 2.556L7.66076 1.994L7.26882 1.594L7.81018 1.512L8.05385 1Z" fill="#FAFAFA"/>
<path d="M10.0136 1L10.2549 1.512L10.7963 1.594L10.4044 1.994L10.4975 2.556L10.0124 2.291L9.52736 2.556L9.62046 1.994L9.22852 1.594L9.76988 1.512L10.0136 1Z" fill="#FAFAFA"/>
<path d="M1.78504 5.14784L2.02641 5.65984L2.56778 5.74184L2.17583 6.14184L2.26893 6.70384L1.78389 6.43884L1.29884 6.70384L1.39194 6.14184L1 5.74184L1.54137 5.65984L1.78504 5.14784Z" fill="#FAFAFA"/>
<path d="M3.87464 5.14784L4.11601 5.65984L4.65738 5.74184L4.26543 6.14184L4.35853 6.70384L3.87349 6.43884L3.38844 6.70384L3.48154 6.14184L3.0896 5.74184L3.63096 5.65984L3.87464 5.14784Z" fill="#FAFAFA"/>
<path d="M5.96424 5.14784L6.20561 5.65984L6.74698 5.74184L6.35503 6.14184L6.44813 6.70384L5.96309 6.43884L5.47804 6.70384L5.57114 6.14184L5.1792 5.74184L5.72057 5.65984L5.96424 5.14784Z" fill="#FAFAFA"/>
<path d="M8.05387 5.14784L8.29524 5.65984L8.83661 5.74184L8.44466 6.14184L8.53776 6.70384L8.05272 6.43884L7.56767 6.70384L7.66077 6.14184L7.26883 5.74184L7.8102 5.65984L8.05387 5.14784Z" fill="#FAFAFA"/>
<path d="M10.0136 5.14784L10.2549 5.65984L10.7963 5.74184L10.4043 6.14184L10.4974 6.70384L10.0124 6.43884L9.52736 6.70384L9.62046 6.14184L9.22852 5.74184L9.76988 5.65984L10.0136 5.14784Z" fill="#FAFAFA"/>
<path d="M2.30799 3.07407L2.54936 3.58607L3.09072 3.66807L2.69878 4.06807L2.79188 4.63007L2.30684 4.36507L1.82179 4.63007L1.91489 4.06807L1.52295 3.66807L2.06431 3.58607L2.30799 3.07407Z" fill="#FAFAFA"/>
<path d="M4.39762 3.07407L4.63899 3.58607L5.18036 3.66807L4.78841 4.06807L4.88151 4.63007L4.39647 4.36507L3.91142 4.63007L4.00452 4.06807L3.61258 3.66807L4.15394 3.58607L4.39762 3.07407Z" fill="#FAFAFA"/>
<path d="M6.48722 3.07407L6.72859 3.58607L7.26996 3.66807L6.87801 4.06807L6.97111 4.63007L6.48607 4.36507L6.00102 4.63007L6.09412 4.06807L5.70218 3.66807L6.24355 3.58607L6.48722 3.07407Z" fill="#FAFAFA"/>
<path d="M8.57682 3.07407L8.81819 3.58607L9.35956 3.66807L8.96761 4.06807L9.06071 4.63007L8.57567 4.36507L8.09062 4.63007L8.18372 4.06807L7.79178 3.66807L8.33314 3.58607L8.57682 3.07407Z" fill="#FAFAFA"/>
<path d="M10.5354 3.07407L10.7768 3.58607L11.3181 3.66807L10.9262 4.06807L11.0193 4.63007L10.5343 4.36507L10.0492 4.63007L10.1423 4.06807L9.75037 3.66807L10.2917 3.58607L10.5354 3.07407Z" fill="#FAFAFA"/>
</svg>
