<svg width="41" height="41" viewBox="0 0 41 41" fill="none" xmlns="http://www.w3.org/2000/svg">
<path d="M41 20.5C41 24.5545 39.7977 28.518 37.5451 31.8892C35.2926 35.2604 32.0909 37.8879 28.345 39.4395C24.5991 40.9911 20.4773 41.3971 16.5007 40.6061C12.524 39.8151 8.8713 37.8627 6.00432 34.9957C3.13734 32.1287 1.18491 28.476 0.393911 24.4994C-0.397086 20.5227 0.00888228 16.4009 1.56048 12.655C3.11208 8.9091 5.73961 5.70744 9.11082 3.45487C12.482 1.2023 16.4455 0 20.5 0C25.9369 0 31.1512 2.15982 34.9957 6.00431C38.8402 9.84881 41 15.0631 41 20.5Z" fill="#1D6CB5"/>
<path d="M33.5951 13.9211C33.4393 13.3418 33.1341 12.8135 32.7099 12.3893C32.2857 11.9651 31.7574 11.6598 31.1781 11.5041C29.0471 10.9331 20.5001 10.9331 20.5001 10.9331C20.5001 10.9331 11.9531 10.9331 9.82107 11.5041C9.24172 11.6598 8.71348 11.9651 8.28928 12.3893C7.86507 12.8135 7.55981 13.3418 7.40406 13.9211C6.64233 18.274 6.64233 22.7262 7.40406 27.0791C7.55981 27.6585 7.86507 28.1867 8.28928 28.6109C8.71348 29.0351 9.24172 29.3404 9.82107 29.4961C11.9521 30.0671 20.5001 30.0671 20.5001 30.0671C20.5001 30.0671 29.0471 30.0671 31.1791 29.4961C31.7584 29.3404 32.2867 29.0351 32.7109 28.6109C33.1351 28.1867 33.4403 27.6585 33.5961 27.0791C34.3578 22.7262 34.3578 18.274 33.5961 13.9211H33.5951ZM17.7661 24.6001V16.4001L24.8661 20.5001L17.7661 24.6001Z" fill="white"/>
</svg>
