<svg width="41" height="41" viewBox="0 0 41 41" fill="none" xmlns="http://www.w3.org/2000/svg">
<path d="M41 20.5002C40.9996 16.5825 39.8765 12.7469 37.7639 9.44769C35.6513 6.14844 32.6375 3.52364 29.0794 1.88407C25.5213 0.244489 21.5679 -0.341202 17.6872 0.196339C13.8066 0.733879 10.1612 2.37214 7.18278 4.91715C4.20432 7.46216 2.01749 10.8073 0.881205 14.5566C-0.255084 18.3059 -0.293242 22.3023 0.771248 26.0726C1.83574 29.8429 3.95829 33.2292 6.88761 35.8306C9.81693 38.432 13.4303 40.1396 17.3 40.7512V26.4262H12.092V20.5002H17.3V15.9842C17.3 10.8462 20.361 8.00816 25.043 8.00816C26.5804 8.02936 28.1141 8.16305 29.632 8.40816V13.4532H27.044C24.497 13.4532 23.703 15.0332 23.703 16.6532V20.5002H29.389L28.48 26.4262H23.7V40.7512C28.5224 39.988 32.9143 37.5292 36.0856 33.8169C39.2569 30.1046 40.9995 25.3826 41 20.5002" fill="#1D6CB5"/>
<path d="M28.4769 26.4263L29.3859 20.5003H23.7029V16.6553C23.7029 15.0343 24.4969 13.4553 27.0439 13.4553H29.6289V8.40928C28.1111 8.16417 26.5773 8.03048 25.0399 8.00928C20.3569 8.00928 17.2969 10.8473 17.2969 15.9853V20.5013H12.0969V26.4273H17.2969V40.7513C19.4194 41.0833 21.5805 41.0833 23.7029 40.7513V26.4263H28.4769Z" fill="white"/>
</svg>
