<svg width="41" height="41" viewBox="0 0 41 41" fill="none" xmlns="http://www.w3.org/2000/svg">
<path d="M20.5 0C24.5545 0 28.518 1.2023 31.8892 3.45487C35.2604 5.70744 37.8879 8.9091 39.4395 12.655C40.9911 16.4009 41.3971 20.5227 40.6061 24.4994C39.8151 28.476 37.8627 32.1287 34.9957 34.9957C32.1287 37.8627 28.476 39.8151 24.4994 40.6061C20.5227 41.3971 16.4009 40.9911 12.655 39.4395C8.9091 37.8879 5.70744 35.2604 3.45487 31.8892C1.2023 28.518 0 24.5545 0 20.5C0 15.0631 2.15982 9.84881 6.00431 6.00431C9.84881 2.15982 15.0631 0 20.5 0" fill="#1D6CB5"/>
<path d="M20.5 9.91877C23.946 9.91877 24.355 9.93177 25.716 9.99377C26.5356 10.0032 27.3475 10.1538 28.116 10.4388C28.6728 10.6534 29.1785 10.9823 29.6005 11.4043C30.0225 11.8263 30.3514 12.332 30.566 12.8888C30.8509 13.6573 31.0014 14.4692 31.011 15.2888C31.073 16.6498 31.086 17.0578 31.086 20.5048C31.086 23.9518 31.073 24.3598 31.011 25.7208C31.0014 26.5404 30.8509 27.3522 30.566 28.1208C30.3514 28.6776 30.0225 29.1833 29.6005 29.6052C29.1785 30.0272 28.6728 30.3561 28.116 30.5708C27.3475 30.8558 26.5356 31.0063 25.716 31.0158C24.355 31.0778 23.947 31.0908 20.5 31.0908C17.053 31.0908 16.645 31.0778 15.284 31.0158C14.4644 31.0063 13.6525 30.8558 12.884 30.5708C12.3272 30.3561 11.8215 30.0272 11.3995 29.6052C10.9776 29.1833 10.6487 28.6776 10.434 28.1208C10.149 27.3523 9.99847 26.5404 9.98902 25.7208C9.92702 24.3598 9.91402 23.9518 9.91402 20.5048C9.91402 17.0578 9.92702 16.6498 9.98902 15.2888C9.99847 14.4692 10.149 13.6573 10.434 12.8888C10.6487 12.332 10.9776 11.8263 11.3995 11.4043C11.8215 10.9823 12.3272 10.6534 12.884 10.4388C13.6525 10.1538 14.4644 10.0032 15.284 9.99377C16.645 9.93177 17.053 9.91877 20.5 9.91877ZM20.5 7.59277C16.995 7.59277 16.555 7.60777 15.178 7.67077C14.1073 7.69227 13.0479 7.89515 12.045 8.27077C11.1876 8.60239 10.4089 9.10948 9.75879 9.75955C9.10872 10.4096 8.60163 11.1883 8.27002 12.0458C7.89439 13.0487 7.69152 14.108 7.67002 15.1788C7.60802 16.5548 7.59302 16.9928 7.59302 20.4998C7.59302 24.0068 7.60802 24.4448 7.67102 25.8218C7.69252 26.8925 7.89539 27.9519 8.27102 28.9548C8.60263 29.8122 9.10972 30.5909 9.75979 31.241C10.4099 31.8911 11.1886 32.3982 12.046 32.7298C13.0489 33.1054 14.1083 33.3083 15.179 33.3298C16.556 33.3928 16.995 33.4078 20.501 33.4078C24.007 33.4078 24.446 33.3928 25.823 33.3298C26.8938 33.3083 27.9531 33.1054 28.956 32.7298C29.8135 32.3982 30.5922 31.8911 31.2422 31.241C31.8923 30.5909 32.3994 29.8122 32.731 28.9548C33.1066 27.9518 33.3095 26.8925 33.331 25.8218C33.394 24.4448 33.409 24.0058 33.409 20.4998C33.409 16.9938 33.394 16.5548 33.331 15.1778C33.3095 14.107 33.1066 13.0477 32.731 12.0448C32.3994 11.1873 31.8923 10.4086 31.2422 9.75855C30.5922 9.10848 29.8135 8.60139 28.956 8.26977C27.9531 7.89415 26.8938 7.69128 25.823 7.66977C24.446 7.60777 24.006 7.59277 20.5 7.59277Z" fill="white"/>
<path d="M20.4961 13.8721C19.1852 13.8729 17.904 14.2624 16.8144 14.9913C15.7249 15.7203 14.876 16.7559 14.3751 17.9673C13.8741 19.1788 13.7437 20.5115 14.0002 21.7971C14.2567 23.0826 14.8887 24.2632 15.8162 25.1896C16.7437 26.116 17.9251 26.7465 19.2109 27.0015C20.4968 27.2565 21.8294 27.1244 23.0402 26.622C24.251 26.1196 25.2856 25.2695 26.0133 24.1791C26.7409 23.0887 27.1289 21.807 27.1281 20.4961C27.1275 19.6257 26.9556 18.7639 26.622 17.96C26.2884 17.156 25.7998 16.4256 25.1839 15.8105C24.5681 15.1954 23.8372 14.7077 23.0328 14.3751C22.2285 14.0425 21.3665 13.8715 20.4961 13.8721ZM20.4961 24.8031C19.6456 24.8031 18.8143 24.5509 18.1071 24.0784C17.4 23.6059 16.8488 22.9343 16.5234 22.1486C16.1979 21.3629 16.1128 20.4983 16.2787 19.6642C16.4446 18.8301 16.8541 18.0639 17.4555 17.4625C18.0569 16.8611 18.8231 16.4516 19.6572 16.2857C20.4913 16.1198 21.3559 16.2049 22.1416 16.5304C22.9273 16.8558 23.5989 17.407 24.0714 18.1141C24.5439 18.8213 24.7961 19.6526 24.7961 20.5031C24.7961 21.6435 24.343 22.7372 23.5366 23.5436C22.7302 24.35 21.6365 24.8031 20.4961 24.8031Z" fill="white"/>
<path d="M28.9391 13.61C28.9391 13.9164 28.8482 14.2159 28.678 14.4706C28.5078 14.7253 28.2659 14.9239 27.9828 15.0411C27.6998 15.1584 27.3884 15.189 27.0879 15.1293C26.7874 15.0695 26.5114 14.922 26.2948 14.7053C26.0781 14.4887 25.9306 14.2127 25.8708 13.9122C25.8111 13.6118 25.8417 13.3003 25.959 13.0173C26.0762 12.7342 26.2748 12.4923 26.5295 12.3221C26.7842 12.1519 27.0837 12.061 27.3901 12.061C27.5935 12.061 27.7949 12.1011 27.9828 12.1789C28.1708 12.2568 28.3415 12.3709 28.4854 12.5147C28.6292 12.6586 28.7433 12.8293 28.8212 13.0173C28.899 13.2052 28.9391 13.4066 28.9391 13.61Z" fill="white"/>
</svg>
