<svg width="41" height="41" viewBox="0 0 41 41" fill="none" xmlns="http://www.w3.org/2000/svg">
<path d="M41 20.5C41 24.5545 39.7977 28.518 37.5451 31.8892C35.2926 35.2604 32.0909 37.8879 28.345 39.4395C24.5991 40.9911 20.4773 41.3971 16.5007 40.6061C12.524 39.8151 8.8713 37.8627 6.00432 34.9957C3.13734 32.1287 1.18491 28.476 0.393911 24.4994C-0.397086 20.5227 0.00888228 16.4009 1.56048 12.655C3.11208 8.9091 5.73961 5.70744 9.11082 3.45487C12.482 1.2023 16.4455 0 20.5 0C25.9369 0 31.1512 2.15982 34.9957 6.00431C38.8402 9.84881 41 15.0631 41 20.5Z" fill="#1D6CB5"/>
<path d="M22.0861 17.7029C22.4231 17.3249 22.7001 16.9409 23.0461 16.6149C23.5463 16.1257 24.1391 15.7411 24.7896 15.4835C25.4402 15.226 26.1355 15.1007 26.8351 15.1149C27.639 15.1019 28.4408 15.1995 29.2181 15.4049C30.034 15.6298 30.7732 16.0729 31.3562 16.6864C31.9392 17.2999 32.344 18.0606 32.5271 18.8869C32.8565 20.1883 33.0046 21.529 32.9671 22.8709C32.9671 25.7029 32.9591 28.5349 32.9671 31.3709C32.9671 31.6359 32.8931 31.7059 32.6321 31.7039C31.1734 31.6919 29.7144 31.6919 28.2551 31.7039C27.9981 31.7039 27.9431 31.6269 27.9441 31.3839C27.9521 28.6893 27.9521 25.9946 27.9441 23.2999C27.96 22.6233 27.8812 21.9477 27.7101 21.2929C27.5901 20.7429 27.2689 20.2577 26.8095 19.9324C26.3501 19.6071 25.7857 19.4654 25.2271 19.5349C24.8599 19.5162 24.4928 19.5723 24.148 19.6999C23.8032 19.8275 23.4879 20.0238 23.2214 20.277C22.9548 20.5302 22.7425 20.835 22.5974 21.1727C22.4522 21.5105 22.3773 21.8743 22.3771 22.2419C22.325 22.6612 22.2993 23.0834 22.3001 23.5059C22.3001 26.1269 22.3001 28.7469 22.3071 31.3679C22.3071 31.6289 22.2431 31.7059 21.9761 31.7039C20.5094 31.6906 19.0398 31.6906 17.5671 31.7039C17.3311 31.7039 17.2671 31.6419 17.2671 31.4039C17.2738 26.2153 17.2738 21.0269 17.2671 15.8389C17.2671 15.5819 17.3511 15.5229 17.5931 15.5249C18.9884 15.5349 20.3841 15.5349 21.7801 15.5249C22.0371 15.5249 22.1031 15.6059 22.0981 15.8489C22.0841 16.4689 22.0981 17.0889 22.0981 17.7089" fill="#FEFEFE"/>
<path d="M14.0931 23.6331C14.0931 26.2001 14.0931 28.7671 14.0991 31.3331C14.0991 31.6181 14.0291 31.7041 13.7341 31.7011C12.2761 31.6851 10.8171 31.6891 9.35908 31.7011C9.12508 31.7011 9.05908 31.6441 9.05908 31.4011C9.06575 26.2011 9.06575 21.0041 9.05908 15.8101C9.05908 15.5951 9.11108 15.5181 9.33908 15.5201C10.8191 15.5301 12.2981 15.5321 13.7781 15.5201C14.0621 15.5201 14.1011 15.6271 14.1001 15.8711C14.0927 18.4591 14.0927 21.0471 14.1001 23.6351" fill="#FEFEFE"/>
<path d="M14.4949 10.3702C14.4975 10.9471 14.3287 11.5118 14.01 11.9926C13.6912 12.4735 13.2369 12.8489 12.7046 13.0712C12.1722 13.2935 11.5858 13.3528 11.0198 13.2415C10.4537 13.1301 9.93348 12.8532 9.52498 12.4459C9.11649 12.0385 8.83816 11.519 8.72526 10.9532C8.61237 10.3875 8.67001 9.80097 8.89087 9.26802C9.11173 8.73506 9.48586 8.27969 9.96584 7.95963C10.4458 7.63957 11.01 7.46923 11.5869 7.47022C12.3556 7.47414 13.0918 7.78068 13.636 8.32346C14.1803 8.86624 14.4889 9.60157 14.4949 10.3702Z" fill="#FEFEFE"/>
</svg>
