<svg width="56" height="56" viewBox="0 0 56 56" fill="none" xmlns="http://www.w3.org/2000/svg">
<path d="M15.2096 25.3999L25.7773 2C27.8793 2 29.8953 2.82178 31.3817 4.28455C32.868 5.74733 33.7031 7.73128 33.7031 9.79995V20.1999H48.6563C49.4222 20.1913 50.1809 20.3468 50.8797 20.6554C51.5785 20.9641 52.2008 21.4186 52.7034 21.9874C53.206 22.5562 53.5769 23.2258 53.7905 23.9497C54.004 24.6736 54.0551 25.4346 53.9402 26.1798L50.2943 49.5797C50.1032 50.8196 49.4633 51.9499 48.4923 52.7621C47.5213 53.5743 46.2847 54.0138 45.0105 53.9997H15.2096M15.2096 25.3999V53.9997M15.2096 25.3999H7.28384C5.88248 25.3999 4.53851 25.9477 3.5476 26.9229C2.55669 27.8981 2 29.2207 2 30.5998V48.7997C2 50.1788 2.55669 51.5014 3.5476 52.4766C4.53851 53.4518 5.88248 53.9997 7.28384 53.9997H15.2096" stroke="#195C94" stroke-width="2.5" stroke-linecap="round" stroke-linejoin="round"/>
</svg>
