<svg width="27" height="24" viewBox="0 0 27 24" fill="none" xmlns="http://www.w3.org/2000/svg">
<path d="M18.5457 7.10079L18.5458 7.10096C19.1053 7.6588 19.549 8.32111 19.8517 9.05001C20.1545 9.7789 20.3103 10.5601 20.3103 11.3491C20.3103 12.138 20.1545 12.9192 19.8517 13.6481C19.549 14.377 19.1053 15.0394 18.5458 15.5972L18.5455 15.5975L10.7975 23.3387L10.7963 23.34C10.7461 23.3904 10.6864 23.4305 10.6205 23.4579C10.5546 23.4853 10.4839 23.4994 10.4125 23.4994C10.341 23.4994 10.2703 23.4853 10.2044 23.4579C10.1386 23.4305 10.0788 23.3904 10.0287 23.34L10.0275 23.3387L2.27947 15.5975L2.27799 15.5961C1.19764 14.5256 0.564095 13.0867 0.504603 11.5692C0.445112 10.0517 0.964078 8.56785 1.95728 7.41654C2.95051 6.2652 4.34427 5.5319 5.85802 5.36465C7.37178 5.19739 8.89271 5.60867 10.1145 6.51541L10.4115 6.73581L10.7092 6.51637C11.869 5.66138 13.2979 5.25002 14.7362 5.3573C16.1745 5.46458 17.5262 6.08335 18.5457 7.10079Z" stroke="#323232"/>
<path d="M13.9693 12.2997C13.9413 12.214 13.8957 12.1406 13.8379 12.0875C13.78 12.0345 13.7122 12.0041 13.6419 11.9997H11.9186L12.3965 9.63017C12.4117 9.55602 12.4139 9.47821 12.4028 9.40278C12.3917 9.32735 12.3676 9.25634 12.3325 9.19526C12.2971 9.13409 12.2515 9.08466 12.1993 9.05083C12.147 9.01701 12.0896 8.99971 12.0315 9.00029H9.39766C9.31271 8.99643 9.22928 9.03089 9.16096 9.09806C9.09264 9.16523 9.04344 9.26116 9.02139 9.37022L8.013 14.3693C7.99766 14.4448 7.99587 14.524 8.00777 14.6006C8.01968 14.6772 8.04494 14.749 8.08154 14.8103C8.11814 14.8716 8.16505 14.9206 8.21849 14.9534C8.27194 14.9862 8.33043 15.0018 8.38927 14.9991H9.83789L9.15685 18.3685C9.13454 18.4771 9.14049 18.5926 9.17375 18.6962C9.207 18.7998 9.26561 18.8854 9.34008 18.9393C9.41454 18.9931 9.5005 19.0119 9.58403 18.9927C9.66755 18.9735 9.74375 18.9173 9.80027 18.8334L13.9016 12.8346C13.9504 12.7635 13.9828 12.6753 13.9948 12.5804C14.0068 12.4855 13.998 12.388 13.9693 12.2997ZM10.2857 16.6388L10.692 14.6392C10.709 14.564 10.7124 14.4845 10.7019 14.4072C10.6915 14.3299 10.6675 14.257 10.6318 14.1943C10.596 14.1325 10.5498 14.0826 10.4968 14.0488C10.4439 14.0149 10.3858 13.998 10.327 13.9993H8.88218L9.68739 10.0001H11.5424L11.0645 12.3696C11.0492 12.4452 11.0474 12.5244 11.0593 12.601C11.0712 12.6776 11.0965 12.7494 11.1331 12.8107C11.1697 12.872 11.2166 12.921 11.27 12.9538C11.3235 12.9866 11.382 13.0022 11.4408 12.9995H12.7841L10.2857 16.6388Z" fill="#323232"/>
<path d="M24.16 3.07539H25.2C25.4758 3.07539 25.7404 3.18472 25.9354 3.37932C26.1304 3.57393 26.24 3.83787 26.24 4.11309C26.24 4.3883 26.1304 4.65224 25.9354 4.84685C25.7404 5.04145 25.4758 5.15078 25.2 5.15078H24.16V6.18848C24.16 6.46369 24.0504 6.72763 23.8554 6.92224C23.6604 7.11684 23.3958 7.22617 23.12 7.22617C22.8442 7.22617 22.5796 7.11684 22.3846 6.92224C22.1896 6.72763 22.08 6.46369 22.08 6.18848V5.15078H21.04C20.7642 5.15078 20.4996 5.04145 20.3046 4.84685C20.1096 4.65224 20 4.3883 20 4.11309C20 3.83787 20.1096 3.57393 20.3046 3.37932C20.4996 3.18472 20.7642 3.07539 21.04 3.07539H22.08V2.0377C22.08 1.76248 22.1896 1.49854 22.3846 1.30393C22.5796 1.10933 22.8442 1 23.12 1C23.3958 1 23.6604 1.10933 23.8554 1.30393C24.0504 1.49854 24.16 1.76248 24.16 2.0377V3.07539Z" stroke="#323232"/>
</svg>
