<svg width="25" height="22" viewBox="0 0 25 22" fill="none" xmlns="http://www.w3.org/2000/svg">
<path d="M4.44015 1.51653L2.62057 1.29625C2.37564 1.2666 2.15304 1.44112 2.12339 1.68605L1.00324 10.939C0.98899 11.0567 1.02212 11.1753 1.09533 11.2685L8.08222 20.1694C8.26946 20.4085 8.50198 20.6083 8.7665 20.7575C9.03102 20.9066 9.32235 21.0022 9.62383 21.0387C9.9253 21.0752 10.231 21.0519 10.5235 20.9702C10.816 20.8884 11.0895 20.7499 11.3283 20.5624L13.2138 19.0841C12.9778 18.971 12.7625 18.8186 12.5771 18.6331L12.4733 18.5294L10.7769 19.8594C10.6304 19.9744 10.4624 20.0596 10.283 20.1097C10.1036 20.1598 9.91612 20.1741 9.7312 20.1517C9.54629 20.1293 9.3676 20.0707 9.20535 19.9792C9.0431 19.8877 8.90048 19.7652 8.78564 19.6185L1.91247 10.8625L2.95668 2.23691L4.44015 2.4165V1.51653Z" fill="#323232" stroke="#323232" stroke-width="0.5" stroke-linecap="round" stroke-linejoin="round"/>
<path d="M23.1071 11.6347L16.4243 18.3175C16.2512 18.4908 16.0456 18.6283 15.8193 18.7221C15.593 18.8159 15.3504 18.8642 15.1054 18.8642C14.8605 18.8642 14.6179 18.8159 14.3916 18.7221C14.1653 18.6283 13.9597 18.4908 13.7866 18.3175L5.78027 10.3205V1H15.1008L23.1071 9.00632C23.4543 9.35558 23.6492 9.82804 23.6492 10.3205C23.6492 10.813 23.4543 11.2854 23.1071 11.6347V11.6347Z" stroke="#323232" stroke-width="1.5" stroke-linecap="round" stroke-linejoin="round"/>
<path d="M9.54736 5.66016H9.5563" stroke="#323232" stroke-width="1.78689" stroke-linecap="round" stroke-linejoin="round"/>
</svg>
