<svg width="28" height="28" viewBox="0 0 28 28" fill="none" xmlns="http://www.w3.org/2000/svg">
<mask id="path-1-outside-1_867_15929" maskUnits="userSpaceOnUse" x="0" y="0" width="28" height="28" fill="black">
<rect fill="white" width="28" height="28"/>
<path fill-rule="evenodd" clip-rule="evenodd" d="M27 1H1V27H14.4815V14.4815H27V1ZM26.037 1.96296H1.96296V26.037H13.5185V13.5185H26.037V1.96296Z"/>
<path d="M5.81482 13.5185H1V14.4815H5.81482V13.5185Z"/>
<path d="M10.6296 14.4815H14.4815V13.5185H10.6296V14.4815Z"/>
<path d="M13.5185 10.1481V14.4815H14.4815V10.1481H13.5185Z"/>
<path d="M13.5185 5.33333H14.4815V1H13.5185V5.33333Z"/>
</mask>
<path fill-rule="evenodd" clip-rule="evenodd" d="M27 1H1V27H14.4815V14.4815H27V1ZM26.037 1.96296H1.96296V26.037H13.5185V13.5185H26.037V1.96296Z" fill="#323232"/>
<path d="M5.81482 13.5185H1V14.4815H5.81482V13.5185Z" fill="#323232"/>
<path d="M10.6296 14.4815H14.4815V13.5185H10.6296V14.4815Z" fill="#323232"/>
<path d="M13.5185 10.1481V14.4815H14.4815V10.1481H13.5185Z" fill="#323232"/>
<path d="M13.5185 5.33333H14.4815V1H13.5185V5.33333Z" fill="#323232"/>
<path d="M1 1V0.8C0.889543 0.8 0.8 0.889543 0.8 1H1ZM27 1H27.2C27.2 0.889543 27.1105 0.8 27 0.8V1ZM1 27H0.8C0.8 27.1105 0.889543 27.2 1 27.2V27ZM14.4815 27V27.2C14.5919 27.2 14.6815 27.1105 14.6815 27H14.4815ZM27 14.4815V14.6815C27.1105 14.6815 27.2 14.5919 27.2 14.4815H27ZM1.96296 1.96296V1.76296C1.85251 1.76296 1.76296 1.85251 1.76296 1.96296H1.96296ZM26.037 1.96296H26.237C26.237 1.85251 26.1475 1.76296 26.037 1.76296V1.96296ZM1.96296 26.037H1.76296C1.76296 26.1475 1.85251 26.237 1.96296 26.237V26.037ZM13.5185 26.037V26.237C13.629 26.237 13.7185 26.1475 13.7185 26.037H13.5185ZM13.5185 13.5185V13.3185C13.4081 13.3185 13.3185 13.4081 13.3185 13.5185H13.5185ZM26.037 13.5185V13.7185C26.1475 13.7185 26.237 13.629 26.237 13.5185H26.037ZM1 13.5185V13.3185H0.8V13.5185H1ZM5.81482 13.5185H6.01481V13.3185H5.81482V13.5185ZM1 14.4815H0.8V14.6815H1V14.4815ZM5.81482 14.4815V14.6815H6.01481V14.4815H5.81482ZM10.6296 14.4815H10.4296V14.6815H10.6296V14.4815ZM14.4815 13.5185H14.6815V13.3185H14.4815V13.5185ZM10.6296 13.5185V13.3185H10.4296V13.5185H10.6296ZM13.5185 14.4815H13.3185V14.6815H13.5185V14.4815ZM13.5185 10.1481V9.94815H13.3185V10.1481H13.5185ZM14.4815 10.1481H14.6815V9.94815H14.4815V10.1481ZM13.5185 5.33333H13.3185V5.53333H13.5185V5.33333ZM14.4815 5.33333V5.53333H14.6815V5.33333H14.4815ZM14.4815 1H14.6815V0.8H14.4815V1ZM13.5185 1V0.8H13.3185V1H13.5185ZM1 1.2H27V0.8H1V1.2ZM1.2 27V1H0.8V27H1.2ZM14.4815 26.8H1V27.2H14.4815V26.8ZM14.2815 14.4815V27H14.6815V14.4815H14.2815ZM27 14.2815H14.4815V14.6815H27V14.2815ZM26.8 1V14.4815H27.2V1H26.8ZM1.96296 2.16296H26.037V1.76296H1.96296V2.16296ZM1.96296 26.237H13.5185V25.837H1.96296V26.237ZM26.037 13.3185H13.5185V13.7185H26.037V13.3185ZM25.837 1.96296V13.5185H26.237V1.96296H25.837ZM2.16296 26.037V1.96296H1.76296V26.037H2.16296ZM13.7185 26.037V13.5185H13.3185V26.037H13.7185ZM1 13.7185H5.81482V13.3185H1V13.7185ZM1.2 14.4815V13.5185H0.8V14.4815H1.2ZM5.81482 14.2815H1V14.6815H5.81482V14.2815ZM6.01481 14.4815V13.5185H5.61481V14.4815H6.01481ZM14.4815 14.2815H10.6296V14.6815H14.4815V14.2815ZM14.2815 13.5185V14.4815H14.6815V13.5185H14.2815ZM10.6296 13.7185H14.4815V13.3185H10.6296V13.7185ZM10.4296 13.5185V14.4815H10.8296V13.5185H10.4296ZM13.7185 14.4815V10.1481H13.3185V14.4815H13.7185ZM14.4815 14.2815H13.5185V14.6815H14.4815V14.2815ZM14.2815 10.1481V14.4815H14.6815V10.1481H14.2815ZM14.4815 9.94815H13.5185V10.3481H14.4815V9.94815ZM13.5185 5.53333H14.4815V5.13333H13.5185V5.53333ZM14.2815 1V5.33333H14.6815V1H14.2815ZM13.5185 1.2H14.4815V0.8H13.5185V1.2ZM13.7185 5.33333V1H13.3185V5.33333H13.7185Z" fill="#323232" mask="url(#path-1-outside-1_867_15929)"/>
</svg>
