<svg width="20" height="28" viewBox="0 0 20 28" fill="none" xmlns="http://www.w3.org/2000/svg">
<path d="M9.99981 13.4342C10.6813 13.4342 11.3474 13.2322 11.914 12.8536C12.4806 12.475 12.9222 11.9369 13.183 11.3073C13.4438 10.6777 13.512 9.98496 13.3791 9.3166C13.2461 8.64825 12.918 8.03433 12.4361 7.55248C11.9543 7.07062 11.3403 6.74247 10.672 6.60953C10.0036 6.47659 9.31087 6.54482 8.6813 6.8056C8.05172 7.06637 7.51362 7.50799 7.13502 8.07459C6.75643 8.64119 6.55436 9.30733 6.55436 9.98878C6.55436 10.9026 6.91736 11.7789 7.56351 12.4251C8.20966 13.0712 9.08602 13.4342 9.99981 13.4342ZM11.3584 12.0221C10.9563 12.2908 10.4835 12.4342 9.99981 12.4342C9.35124 12.4342 8.72923 12.1766 8.27062 11.718C7.81201 11.2594 7.55436 10.6374 7.55436 9.98878C7.55436 9.50511 7.69778 9.03231 7.96649 8.63016C8.2352 8.22801 8.61713 7.91457 9.06398 7.72948C9.51083 7.54438 10.0025 7.49596 10.4769 7.59031C10.9513 7.68467 11.387 7.91758 11.729 8.25958C12.071 8.60159 12.3039 9.03732 12.3983 9.51169C12.4926 9.98607 12.4442 10.4778 12.2591 10.9246C12.074 11.3715 11.7606 11.7534 11.3584 12.0221ZM9.30918 22.7587L9.30816 22.7576L3.28471 16.7195L3.28419 16.7189C1.95512 15.3906 1.04986 13.6979 0.682904 11.855C0.315949 10.012 0.503787 8.10169 1.22266 6.36554C1.94153 4.62938 3.15914 3.14542 4.72149 2.10135C6.28383 1.05728 8.12072 0.5 9.99981 0.5C11.8789 0.5 13.7158 1.05728 15.2781 2.10135C16.8405 3.14542 18.0581 4.62938 18.777 6.36554C19.4958 8.10169 19.6837 10.012 19.3167 11.855C18.9498 13.6979 18.0445 15.3906 16.7154 16.7189L16.7149 16.7195L10.6915 22.7576L10.6905 22.7587C10.6 22.8498 10.4924 22.9222 10.3739 22.9716C10.2554 23.021 10.1282 23.0464 9.99981 23.0464C9.8714 23.0464 9.74426 23.021 9.62572 22.9716C9.50719 22.9222 9.39961 22.8498 9.30918 22.7587Z" stroke="#323232"/>
<line x1="1.33545" y1="26.9922" x2="18.663" y2="26.9922" stroke="#323232" stroke-linecap="round"/>
</svg>
