<svg width="38" height="38" viewBox="0 0 38 38" fill="none" xmlns="http://www.w3.org/2000/svg">
<circle cx="19" cy="19" r="19" fill="#FAFAFA"/>
<path d="M26.1794 31L18.978 23.7809C18.798 23.6016 18.5749 23.4722 18.3302 23.4051C18.0855 23.3379 17.8277 23.3354 17.5818 23.3978C16.8722 23.5883 16.1412 23.6873 15.4067 23.6925C14.3074 23.7022 13.2171 23.4938 12.1985 23.0792C11.18 22.6647 10.2533 22.0522 9.47191 21.2771C8.69051 20.502 8.06981 19.5796 7.64558 18.563C7.22135 17.5463 7.00196 16.4556 7.00007 15.3536C6.99816 14.8601 7.03749 14.3673 7.11764 13.8803L12.8788 19.6704C13.0154 19.8084 13.178 19.9181 13.3571 19.9929C13.5362 20.0676 13.7283 20.1062 13.9223 20.1062C14.1163 20.1062 14.3084 20.0676 14.4875 19.9929C14.6666 19.9181 14.8291 19.8084 14.9658 19.6704L19.6393 14.9411C19.9042 14.6664 20.0523 14.2992 20.0523 13.9171C20.0523 13.5351 19.9042 13.1679 19.6393 12.8932L13.9223 7.11789C14.4081 7.03835 14.8997 6.99893 15.392 7.00002C17.5995 7.00393 19.7153 7.88576 21.2749 9.45193C22.8344 11.0181 23.7104 13.1406 23.7104 15.3536C23.7052 16.09 23.6065 16.8227 23.4164 17.5341C23.3542 17.7806 23.3567 18.0391 23.4237 18.2843C23.4906 18.5296 23.6198 18.7533 23.7986 18.9337L31 26.1529" stroke="#195C94" stroke-linecap="round" stroke-linejoin="round"/>
</svg>
