<svg width="38" height="38" viewBox="0 0 38 38" fill="none" xmlns="http://www.w3.org/2000/svg">
<circle cx="19" cy="19" r="19" fill="#FAFAFA"/>
<path d="M11.4402 10.5165L9.62057 10.2963C9.37564 10.2666 9.15304 10.4411 9.12339 10.686L8.00324 19.939C7.98899 20.0567 8.02212 20.1753 8.09533 20.2685L15.0822 29.1694C15.2695 29.4085 15.502 29.6083 15.7665 29.7575C16.031 29.9066 16.3224 30.0022 16.6238 30.0387C16.9253 30.0752 17.231 30.0519 17.5235 29.9702C17.816 29.8884 18.0895 29.7499 18.3283 29.5624L20.2138 28.0841C19.9778 27.971 19.7625 27.8186 19.5771 27.6331L19.4733 27.5294L17.7769 28.8594C17.6304 28.9744 17.4624 29.0596 17.283 29.1097C17.1036 29.1598 16.9161 29.1741 16.7312 29.1517C16.5463 29.1293 16.3676 29.0707 16.2054 28.9792C16.0431 28.8877 15.9005 28.7652 15.7856 28.6185L8.91247 19.8625L9.95668 11.2369L11.4402 11.4165V10.5165Z" fill="#195C94"/>
<path d="M30.1071 20.6347L23.4243 27.3175C23.2512 27.4908 23.0456 27.6283 22.8193 27.7221C22.593 27.8159 22.3504 27.8642 22.1054 27.8642C21.8605 27.8642 21.6179 27.8159 21.3916 27.7221C21.1653 27.6283 20.9597 27.4908 20.7866 27.3175L12.7803 19.3205V10H22.1008L30.1071 18.0063C30.4543 18.3556 30.6492 18.828 30.6492 19.3205C30.6492 19.813 30.4543 20.2854 30.1071 20.6347V20.6347Z" stroke="#195C94" stroke-width="0.893447" stroke-linecap="round" stroke-linejoin="round"/>
<path d="M16.5474 14.6602H16.5563" stroke="#195C94" stroke-width="1.78689" stroke-linecap="round" stroke-linejoin="round"/>
</svg>
