<svg width="38" height="38" viewBox="0 0 38 38" fill="none" xmlns="http://www.w3.org/2000/svg">
<circle cx="19" cy="19" r="19" fill="#FAFAFA"/>
<path d="M21.1144 29.804C20.8996 30.1678 20.5911 30.4697 20.2201 30.6796C19.849 30.8895 19.4282 31 19 31C18.5718 31 18.151 30.8895 17.7799 30.6796C17.4089 30.4697 17.1004 30.1678 16.8856 29.804M26.3333 14.2013C26.3333 12.2914 25.5607 10.4597 24.1855 9.1092C22.8102 7.7587 20.9449 7 19 7C17.0551 7 15.1898 7.7587 13.8146 9.1092C12.4393 10.4597 11.6667 12.2914 11.6667 14.2013C11.6667 22.6028 8 25.0032 8 25.0032H30C30 25.0032 26.3333 22.6028 26.3333 14.2013Z" stroke="#195C94" stroke-linecap="round" stroke-linejoin="round"/>
</svg>
