<svg width="38" height="38" viewBox="0 0 38 38" fill="none" xmlns="http://www.w3.org/2000/svg">
<circle cx="19" cy="19" r="19" fill="#FAFAFA"/>
<path d="M18.9998 18.1881C19.6813 18.1881 20.3474 17.9861 20.914 17.6075C21.4806 17.2289 21.9222 16.6908 22.183 16.0612C22.4438 15.4316 22.512 14.7389 22.3791 14.0705C22.2461 13.4022 21.918 12.7882 21.4361 12.3064C20.9543 11.8245 20.3403 11.4964 19.672 11.3634C19.0036 11.2305 18.3109 11.2987 17.6813 11.5595C17.0517 11.8203 16.5136 12.2619 16.135 12.8285C15.7564 13.3951 15.5544 14.0612 15.5544 14.7427C15.5544 15.6565 15.9174 16.5328 16.5635 17.179C17.2097 17.8251 18.086 18.1881 18.9998 18.1881ZM20.3584 16.776C19.9563 17.0447 19.4835 17.1881 18.9998 17.1881C18.3512 17.1881 17.7292 16.9305 17.2706 16.4719C16.812 16.0133 16.5544 15.3913 16.5544 14.7427C16.5544 14.259 16.6978 13.7862 16.9665 13.3841C17.2352 12.9819 17.6171 12.6685 18.064 12.4834C18.5108 12.2983 19.0025 12.2499 19.4769 12.3442C19.9513 12.4386 20.387 12.6715 20.729 13.0135C21.071 13.3555 21.3039 13.7912 21.3983 14.2656C21.4926 14.74 21.4442 15.2317 21.2591 15.6785C21.074 16.1254 20.7606 16.5073 20.3584 16.776ZM18.3092 27.5126L18.3082 27.5116L12.2847 21.4734L12.2842 21.4729C10.9551 20.1445 10.0499 18.4518 9.6829 16.6089C9.31595 14.7659 9.50379 12.8556 10.2227 11.1194C10.9415 9.38329 12.1591 7.89933 13.7215 6.85526C15.2838 5.81119 17.1207 5.25391 18.9998 5.25391C20.8789 5.25391 22.7158 5.81119 24.2781 6.85526C25.8405 7.89933 27.0581 9.38329 27.777 11.1194C28.4958 12.8556 28.6837 14.7659 28.3167 16.6089C27.9498 18.4518 27.0445 20.1445 25.7154 21.4729L25.7149 21.4734L19.6915 27.5116L19.6905 27.5126C19.6 27.6037 19.4924 27.6761 19.3739 27.7255C19.2554 27.7749 19.1282 27.8003 18.9998 27.8003C18.8714 27.8003 18.7443 27.7749 18.6257 27.7255C18.5072 27.6761 18.3996 27.6037 18.3092 27.5126Z" stroke="#195C94"/>
<line x1="10.3359" y1="31.7461" x2="27.6635" y2="31.7461" stroke="#195C94" stroke-linecap="round"/>
</svg>
