<svg width="38" height="38" viewBox="0 0 38 38" fill="none" xmlns="http://www.w3.org/2000/svg">
<circle cx="19" cy="19" r="19" fill="#FAFAFA"/>
<path d="M24.5457 14.1008L24.5458 14.101C25.1053 14.6588 25.549 15.3211 25.8517 16.05C26.1545 16.7789 26.3103 17.5601 26.3103 18.3491C26.3103 19.138 26.1545 19.9192 25.8517 20.6481C25.549 21.377 25.1053 22.0394 24.5458 22.5972L24.5455 22.5975L16.7975 30.3387L16.7963 30.34C16.7461 30.3904 16.6864 30.4305 16.6205 30.4579C16.5546 30.4853 16.4839 30.4994 16.4125 30.4994C16.341 30.4994 16.2703 30.4853 16.2044 30.4579C16.1386 30.4305 16.0788 30.3904 16.0287 30.34L16.0275 30.3387L8.27947 22.5975L8.27799 22.5961C7.19764 21.5256 6.56409 20.0867 6.5046 18.5692C6.44511 17.0517 6.96408 15.5679 7.95728 14.4165C8.95051 13.2652 10.3443 12.5319 11.858 12.3646C13.3718 12.1974 14.8927 12.6087 16.1145 13.5154L16.4115 13.7358L16.7092 13.5164C17.869 12.6614 19.2979 12.25 20.7362 12.3573C22.1745 12.4646 23.5262 13.0833 24.5457 14.1008Z" stroke="#195C94"/>
<path d="M19.9693 19.2997C19.9413 19.214 19.8957 19.1406 19.8379 19.0875C19.78 19.0345 19.7122 19.0041 19.6419 18.9997H17.9186L18.3965 16.6302C18.4117 16.556 18.4139 16.4782 18.4028 16.4028C18.3917 16.3274 18.3676 16.2563 18.3325 16.1953C18.2971 16.1341 18.2515 16.0847 18.1993 16.0508C18.147 16.017 18.0896 15.9997 18.0315 16.0003H15.3977C15.3127 15.9964 15.2293 16.0309 15.161 16.0981C15.0926 16.1652 15.0434 16.2612 15.0214 16.3702L14.013 21.3693C13.9977 21.4448 13.9959 21.524 14.0078 21.6006C14.0197 21.6772 14.0449 21.749 14.0815 21.8103C14.1181 21.8716 14.165 21.9206 14.2185 21.9534C14.2719 21.9862 14.3304 22.0018 14.3893 21.9991H15.8379L15.1569 25.3685C15.1345 25.4772 15.1405 25.5926 15.1737 25.6962C15.207 25.7998 15.2656 25.8854 15.3401 25.9393C15.4145 25.9931 15.5005 26.0119 15.584 25.9927C15.6676 25.9735 15.7437 25.9173 15.8003 25.8334L19.9016 19.8346C19.9504 19.7635 19.9828 19.6753 19.9948 19.5804C20.0068 19.4855 19.998 19.388 19.9693 19.2997ZM16.2857 23.6388L16.692 21.6392C16.709 21.564 16.7124 21.4845 16.7019 21.4072C16.6915 21.3299 16.6675 21.257 16.6318 21.1943C16.596 21.1325 16.5498 21.0826 16.4968 21.0488C16.4439 21.0149 16.3858 20.998 16.327 20.9993H14.8822L15.6874 17.0001H17.5424L17.0645 19.3696C17.0492 19.4452 17.0474 19.5244 17.0593 19.601C17.0712 19.6776 17.0965 19.7494 17.1331 19.8107C17.1697 19.872 17.2166 19.921 17.27 19.9538C17.3235 19.9866 17.382 20.0022 17.4408 19.9995H18.7841L16.2857 23.6388Z" fill="#195C94"/>
<path d="M30.16 10.0754H31.2C31.4758 10.0754 31.7404 10.1847 31.9354 10.3793C32.1304 10.5739 32.24 10.8379 32.24 11.1131C32.24 11.3883 32.1304 11.6522 31.9354 11.8468C31.7404 12.0415 31.4758 12.1508 31.2 12.1508H30.16V13.1885C30.16 13.4637 30.0504 13.7276 29.8554 13.9222C29.6604 14.1168 29.3958 14.2262 29.12 14.2262C28.8442 14.2262 28.5796 14.1168 28.3846 13.9222C28.1896 13.7276 28.08 13.4637 28.08 13.1885V12.1508H27.04C26.7642 12.1508 26.4996 12.0415 26.3046 11.8468C26.1096 11.6522 26 11.3883 26 11.1131C26 10.8379 26.1096 10.5739 26.3046 10.3793C26.4996 10.1847 26.7642 10.0754 27.04 10.0754H28.08V9.0377C28.08 8.76248 28.1896 8.49854 28.3846 8.30393C28.5796 8.10933 28.8442 8 29.12 8C29.3958 8 29.6604 8.10933 29.8554 8.30393C30.0504 8.49854 30.16 8.76248 30.16 9.0377V10.0754Z" stroke="#195C94"/>
</svg>
