<svg width="38" height="38" viewBox="0 0 38 38" fill="none" xmlns="http://www.w3.org/2000/svg">
<circle cx="19" cy="19" r="19" fill="#FAFAFA"/>
<mask id="path-2-outside-1_1501_8134" maskUnits="userSpaceOnUse" x="7" y="7" width="24" height="24" fill="black">
<rect fill="white" x="7" y="7" width="24" height="24"/>
<path fill-rule="evenodd" clip-rule="evenodd" d="M30 8H8V30H19.4074V19.4074H30V8ZM29.1852 8.81481H8.81481V29.1852H18.5926V18.5926H29.1852V8.81481Z"/>
<path d="M12.0741 18.5926H8V19.4074H12.0741V18.5926Z"/>
<path d="M16.1481 19.4074H19.4074V18.5926H16.1481V19.4074Z"/>
<path d="M18.5926 15.7407V19.4074H19.4074V15.7407H18.5926Z"/>
<path d="M18.5926 11.6667H19.4074V8H18.5926V11.6667Z"/>
</mask>
<path fill-rule="evenodd" clip-rule="evenodd" d="M30 8H8V30H19.4074V19.4074H30V8ZM29.1852 8.81481H8.81481V29.1852H18.5926V18.5926H29.1852V8.81481Z" fill="#195C94"/>
<path d="M12.0741 18.5926H8V19.4074H12.0741V18.5926Z" fill="#195C94"/>
<path d="M16.1481 19.4074H19.4074V18.5926H16.1481V19.4074Z" fill="#195C94"/>
<path d="M18.5926 15.7407V19.4074H19.4074V15.7407H18.5926Z" fill="#195C94"/>
<path d="M18.5926 11.6667H19.4074V8H18.5926V11.6667Z" fill="#195C94"/>
<path d="M8 8V7.8C7.88954 7.8 7.8 7.88954 7.8 8H8ZM30 8H30.2C30.2 7.88954 30.1105 7.8 30 7.8V8ZM8 30H7.8C7.8 30.1105 7.88954 30.2 8 30.2V30ZM19.4074 30V30.2C19.5179 30.2 19.6074 30.1105 19.6074 30H19.4074ZM30 19.4074V19.6074C30.1105 19.6074 30.2 19.5179 30.2 19.4074H30ZM8.81481 8.81481V8.61481C8.70436 8.61481 8.61481 8.70436 8.61481 8.81481H8.81481ZM29.1852 8.81481H29.3852C29.3852 8.70436 29.2956 8.61481 29.1852 8.61481V8.81481ZM8.81481 29.1852H8.61481C8.61481 29.2956 8.70436 29.3852 8.81481 29.3852V29.1852ZM18.5926 29.1852V29.3852C18.703 29.3852 18.7926 29.2956 18.7926 29.1852H18.5926ZM18.5926 18.5926V18.3926C18.4821 18.3926 18.3926 18.4821 18.3926 18.5926H18.5926ZM29.1852 18.5926V18.7926C29.2956 18.7926 29.3852 18.703 29.3852 18.5926H29.1852ZM8 18.5926V18.3926H7.8V18.5926H8ZM12.0741 18.5926H12.2741V18.3926H12.0741V18.5926ZM8 19.4074H7.8V19.6074H8V19.4074ZM12.0741 19.4074V19.6074H12.2741V19.4074H12.0741ZM16.1481 19.4074H15.9481V19.6074H16.1481V19.4074ZM19.4074 18.5926H19.6074V18.3926H19.4074V18.5926ZM16.1481 18.5926V18.3926H15.9481V18.5926H16.1481ZM18.5926 19.4074H18.3926V19.6074H18.5926V19.4074ZM18.5926 15.7407V15.5407H18.3926V15.7407H18.5926ZM19.4074 15.7407H19.6074V15.5407H19.4074V15.7407ZM18.5926 11.6667H18.3926V11.8667H18.5926V11.6667ZM19.4074 11.6667V11.8667H19.6074V11.6667H19.4074ZM19.4074 8H19.6074V7.8H19.4074V8ZM18.5926 8V7.8H18.3926V8H18.5926ZM8 8.2H30V7.8H8V8.2ZM8.2 30V8H7.8V30H8.2ZM19.4074 29.8H8V30.2H19.4074V29.8ZM19.2074 19.4074V30H19.6074V19.4074H19.2074ZM30 19.2074H19.4074V19.6074H30V19.2074ZM29.8 8V19.4074H30.2V8H29.8ZM8.81481 9.01481H29.1852V8.61481H8.81481V9.01481ZM8.81481 29.3852H18.5926V28.9852H8.81481V29.3852ZM29.1852 18.3926H18.5926V18.7926H29.1852V18.3926ZM28.9852 8.81481V18.5926H29.3852V8.81481H28.9852ZM9.01481 29.1852V8.81481H8.61481V29.1852H9.01481ZM18.7926 29.1852V18.5926H18.3926V29.1852H18.7926ZM8 18.7926H12.0741V18.3926H8V18.7926ZM8.2 19.4074V18.5926H7.8V19.4074H8.2ZM12.0741 19.2074H8V19.6074H12.0741V19.2074ZM12.2741 19.4074V18.5926H11.8741V19.4074H12.2741ZM19.4074 19.2074H16.1481V19.6074H19.4074V19.2074ZM19.2074 18.5926V19.4074H19.6074V18.5926H19.2074ZM16.1481 18.7926H19.4074V18.3926H16.1481V18.7926ZM15.9481 18.5926V19.4074H16.3481V18.5926H15.9481ZM18.7926 19.4074V15.7407H18.3926V19.4074H18.7926ZM19.4074 19.2074H18.5926V19.6074H19.4074V19.2074ZM19.2074 15.7407V19.4074H19.6074V15.7407H19.2074ZM19.4074 15.5407H18.5926V15.9407H19.4074V15.5407ZM18.5926 11.8667H19.4074V11.4667H18.5926V11.8667ZM19.2074 8V11.6667H19.6074V8H19.2074ZM18.5926 8.2H19.4074V7.8H18.5926V8.2ZM18.7926 11.6667V8H18.3926V11.6667H18.7926Z" fill="#195C94" mask="url(#path-2-outside-1_1501_8134)"/>
</svg>
