<svg width="38" height="38" viewBox="0 0 38 38" fill="none" xmlns="http://www.w3.org/2000/svg">
<circle cx="19" cy="19" r="19" fill="#FAFAFA"/>
<path fill-rule="evenodd" clip-rule="evenodd" d="M30.1035 20.8281L27.3438 21.2559C27.1387 22.041 26.8281 22.791 26.418 23.4941L28.0996 25.6973C28.2168 25.8496 28.2051 26.0723 28.0645 26.207L25.9844 28.3047C25.8496 28.4395 25.6328 28.457 25.4746 28.3457L23.2305 26.6875C22.5273 27.1035 21.7715 27.4141 20.9805 27.6191L20.6172 30.3672C20.5938 30.5605 20.4297 30.707 20.2305 30.707L17.2773 30.7188C17.084 30.7188 16.9199 30.5781 16.8906 30.3848L16.4688 27.6309C15.6895 27.4316 14.9395 27.1211 14.2363 26.7109L12.0215 28.3809C11.8633 28.498 11.6465 28.4863 11.5117 28.3457L9.41406 26.2656C9.2793 26.1309 9.26172 25.9141 9.37305 25.7559L11.0137 23.5059C10.5918 22.791 10.2754 22.0234 10.0703 21.2266L7.35156 20.8984C7.1582 20.875 7.01172 20.7109 7.01172 20.5117L7 17.5645C7 17.3711 7.14063 17.207 7.33398 17.1777L10.0879 16.7617C10.2988 15.959 10.6211 15.1973 11.043 14.4883L9.33789 12.3086C9.21484 12.1562 9.23242 11.9336 9.36719 11.793L11.4531 9.69531C11.5938 9.55469 11.8105 9.54297 11.9688 9.66016L14.1953 11.3535C14.9043 10.9375 15.666 10.6211 16.4629 10.4102L16.8203 7.62695C16.8438 7.43359 17.0078 7.28711 17.207 7.28711L20.1602 7.28125C20.3535 7.28125 20.5176 7.42188 20.5469 7.61523L20.9512 10.4102C21.7246 10.6094 22.4746 10.9141 23.1719 11.3242L25.4102 9.61914C25.5625 9.50195 25.7852 9.51367 25.9199 9.6543L28.0176 11.7402C28.1582 11.875 28.1699 12.0977 28.0527 12.25L26.3711 14.4824C26.793 15.1914 27.1152 15.9531 27.3262 16.75L30.0801 17.1133C30.2734 17.1367 30.4199 17.3008 30.4199 17.5L30.4316 20.4531C30.4375 20.6348 30.2969 20.7988 30.1035 20.8281ZM29.6465 17.834L26.9688 17.4824C26.8047 17.459 26.6758 17.3418 26.6406 17.1836C26.4355 16.2871 26.0781 15.4434 25.5801 14.6641C25.4922 14.5293 25.498 14.3477 25.5977 14.2187L27.2324 12.0449L25.6211 10.4395L23.4414 12.0977C23.3125 12.1973 23.1367 12.2031 23.002 12.1211C22.2285 11.6465 21.3965 11.3008 20.5234 11.1074C20.3652 11.0723 20.248 10.9434 20.2246 10.7852L19.832 8.06641L17.5469 8.07227L17.1953 10.7793C17.1719 10.9434 17.0547 11.0723 16.8965 11.1074C16 11.3125 15.1562 11.6641 14.3711 12.1562C14.2363 12.2441 14.0547 12.2383 13.9258 12.1387L11.7578 10.4922L10.1641 12.0977L11.8223 14.2187C11.9219 14.3477 11.9336 14.5293 11.8457 14.6699C11.3477 15.4492 10.9902 16.2988 10.7852 17.1953C10.75 17.3535 10.6211 17.4707 10.4629 17.4941L7.78516 17.8984L7.79102 20.166L10.4395 20.4941C10.6035 20.5117 10.7383 20.6348 10.7734 20.7988C10.9727 21.6895 11.3242 22.5391 11.8223 23.3242C11.9102 23.459 11.9043 23.6348 11.8047 23.7637L10.2051 25.9492L11.8223 27.5547L13.9785 25.9258C14.0488 25.873 14.1309 25.8496 14.2129 25.8496C14.2832 25.8496 14.3535 25.8672 14.418 25.9082C15.1914 26.3887 16.0234 26.7344 16.9023 26.9277C17.0605 26.9629 17.1777 27.0918 17.2012 27.25L17.6113 29.9336L19.8848 29.9277L20.2422 27.2559C20.2656 27.0918 20.3828 26.9629 20.541 26.9277C21.4258 26.7227 22.2695 26.377 23.043 25.8906C23.1777 25.8027 23.3535 25.8145 23.4824 25.9082L25.6738 27.5195L27.2793 25.9023L25.6445 23.7578C25.5449 23.6289 25.5391 23.4531 25.6211 23.3125C26.1074 22.5391 26.4531 21.7012 26.6523 20.8223C26.6875 20.6641 26.8164 20.5469 26.9746 20.5234L29.6582 20.1074L29.6465 17.834ZM18.6719 23.6758C16.0879 23.6758 13.9844 21.5723 13.9844 18.9883C13.9844 16.4043 16.0879 14.3008 18.6719 14.3008C21.2559 14.3008 23.3594 16.4043 23.3594 18.9883C23.3594 21.5723 21.2559 23.6758 18.6719 23.6758ZM18.6719 15.0801C16.5156 15.0801 14.7637 16.832 14.7637 18.9883C14.7637 21.1445 16.5156 22.8965 18.6719 22.8965C20.8281 22.8965 22.5801 21.1445 22.5801 18.9883C22.5801 16.832 20.8223 15.0801 18.6719 15.0801Z" fill="#195C94"/>
</svg>
