<svg width="24" height="22" viewBox="0 0 24 22" fill="none" xmlns="http://www.w3.org/2000/svg">
<path d="M3.44015 1.51653L1.62057 1.29625C1.37564 1.2666 1.15304 1.44112 1.12339 1.68605L0.00323951 10.939C-0.0110102 11.0567 0.0221197 11.1753 0.0953311 11.2685L7.08222 20.1694C7.26946 20.4085 7.50198 20.6083 7.7665 20.7575C8.03102 20.9066 8.32235 21.0022 8.62383 21.0387C8.9253 21.0752 9.23102 21.0519 9.52349 20.9702C9.81596 20.8884 10.0895 20.7499 10.3283 20.5624L12.2138 19.0841C11.9778 18.971 11.7625 18.8186 11.5771 18.6331L11.4733 18.5294L9.77689 19.8594C9.63036 19.9744 9.46242 20.0596 9.28303 20.1097C9.10363 20.1598 8.91612 20.1741 8.7312 20.1517C8.54629 20.1293 8.3676 20.0707 8.20535 19.9792C8.0431 19.8877 7.90048 19.7652 7.78564 19.6185L0.912468 10.8625L1.95668 2.23691L3.44015 2.4165V1.51653Z" fill="#FAFAFA"/>
<path d="M22.1081 11.6347L15.4253 18.3175C15.2522 18.4908 15.0466 18.6283 14.8203 18.7221C14.594 18.8159 14.3514 18.8642 14.1064 18.8642C13.8615 18.8642 13.6189 18.8159 13.3926 18.7221C13.1663 18.6283 12.9607 18.4908 12.7876 18.3175L4.78125 10.3205V1H14.1018L22.1081 9.00632C22.4553 9.35558 22.6502 9.82804 22.6502 10.3205C22.6502 10.813 22.4553 11.2854 22.1081 11.6347V11.6347Z" stroke="#FAFAFA" stroke-width="0.893447" stroke-linecap="round" stroke-linejoin="round"/>
<path d="M8.54688 5.66016H8.55581" stroke="#FAFAFA" stroke-width="1.78689" stroke-linecap="round" stroke-linejoin="round"/>
</svg>
