<svg width="20" height="29" viewBox="0 0 20 29" fill="none" xmlns="http://www.w3.org/2000/svg">
<path d="M9.30918 23.5126L9.30816 23.5116L3.28471 17.4734L3.28419 17.4729C1.95512 16.1445 1.04986 14.4518 0.682904 12.6089C0.315949 10.7659 0.503787 8.8556 1.22266 7.11944C1.94153 5.38329 3.15914 3.89933 4.72149 2.85526C6.28383 1.81119 8.12072 1.25391 9.99981 1.25391C11.8789 1.25391 13.7158 1.81119 15.2781 2.85526C16.8405 3.89933 18.0581 5.38329 18.777 7.11944C19.4958 8.8556 19.6837 10.7659 19.3167 12.6089C18.9498 14.4518 18.0445 16.1445 16.7154 17.4729L16.7149 17.4734L10.6915 23.5116L10.6905 23.5126C10.6 23.6037 10.4924 23.6761 10.3739 23.7255C10.2554 23.7749 10.1282 23.8003 9.99981 23.8003C9.8714 23.8003 9.74426 23.7749 9.62572 23.7255C9.50719 23.6761 9.39961 23.6037 9.30918 23.5126Z" stroke="#FAFAFA"/>
<path d="M9.99981 14.1881C10.6813 14.1881 11.3474 13.9861 11.914 13.6075C12.4806 13.2289 12.9222 12.6908 13.183 12.0612C13.4438 11.4316 13.512 10.7389 13.3791 10.0705C13.2461 9.40216 12.918 8.78824 12.4361 8.30638C11.9543 7.82453 11.3403 7.49638 10.672 7.36344C10.0036 7.23049 9.31087 7.29872 8.6813 7.5595C8.05172 7.82028 7.51362 8.26189 7.13502 8.82849C6.75643 9.3951 6.55436 10.0612 6.55436 10.7427C6.55436 11.6565 6.91736 12.5328 7.56351 13.179C8.20966 13.8251 9.08602 14.1881 9.99981 14.1881ZM11.3584 12.776C10.9563 13.0447 10.4835 13.1881 9.99981 13.1881C9.35124 13.1881 8.72923 12.9305 8.27062 12.4719C7.81201 12.0133 7.55436 11.3913 7.55436 10.7427C7.55436 10.259 7.69778 9.78622 7.96649 9.38406C8.2352 8.98191 8.61713 8.66847 9.06398 8.48338C9.51083 8.29829 10.0025 8.24986 10.4769 8.34422C10.9513 8.43858 11.387 8.67149 11.729 9.01349C12.071 9.35549 12.3039 9.79123 12.3983 10.2656C12.4926 10.74 12.4442 11.2317 12.2591 11.6785C12.074 12.1254 11.7606 12.5073 11.3584 12.776ZM9.30918 23.5126L9.30816 23.5116L3.28471 17.4734L3.28419 17.4729C1.95512 16.1445 1.04986 14.4518 0.682904 12.6089C0.315949 10.7659 0.503787 8.8556 1.22266 7.11944C1.94153 5.38329 3.15914 3.89933 4.72149 2.85526C6.28383 1.81119 8.12072 1.25391 9.99981 1.25391C11.8789 1.25391 13.7158 1.81119 15.2781 2.85526C16.8405 3.89933 18.0581 5.38329 18.777 7.11944C19.4958 8.8556 19.6837 10.7659 19.3167 12.6089C18.9498 14.4518 18.0445 16.1445 16.7154 17.4729L16.7149 17.4734L10.6915 23.5116L10.6905 23.5126C10.6 23.6037 10.4924 23.6761 10.3739 23.7255C10.2554 23.7749 10.1282 23.8003 9.99981 23.8003C9.8714 23.8003 9.74426 23.7749 9.62572 23.7255C9.50719 23.6761 9.39961 23.6037 9.30918 23.5126Z" stroke="#FAFAFA"/>

<line x1="1.33594" y1="27.7451" x2="18.6635" y2="27.7451" stroke="#FAFAFA" stroke-linecap="round"/>
</svg>
