<svg width="24" height="29" viewBox="0 0 24 29" fill="none" xmlns="http://www.w3.org/2000/svg">
<path d="M0.700355 16.7033L0.596804 16.8107L8.94711 25.4665L8.88965 25.5261L12.2409 29L12.2984 28.9404L12.3559 29L15.7072 25.5261L15.6497 25.4665L24 16.8107L23.8964 16.7033H17.401L12.2984 21.9926L7.19585 16.7033H0.700355Z" fill="#FAFAFA"/>
<path d="M23.8429 11.7542C23.5319 5.20828 18.3134 0 11.9214 0C5.52943 0 0.310954 5.20828 0 11.7542H4.78429C5.08755 7.94365 8.16713 4.94914 11.9214 4.94914C15.6757 4.94914 18.7553 7.94365 19.0586 11.7542H23.8429Z" fill="#FAFAFA"/>
<path d="M13.1297 8.04235H10.7425V11.1356H7.75846V13.6101H10.7425V16.7033H13.1297V13.6101H16.1137V11.1356H13.1297V8.04235Z" fill="#FAFAFA"/>
</svg>
