<svg width="26" height="26" viewBox="0 0 26 26" fill="none" xmlns="http://www.w3.org/2000/svg">
<path d="M20.1794 25L12.978 17.7809C12.798 17.6016 12.5749 17.4722 12.3302 17.4051C12.0855 17.3379 11.8277 17.3354 11.5818 17.3978C10.8722 17.5883 10.1412 17.6873 9.40666 17.6925C8.30741 17.7022 7.2171 17.4938 6.19854 17.0792C5.17999 16.6647 4.25332 16.0522 3.47191 15.2771C2.69051 14.502 2.06981 13.5796 1.64558 12.563C1.22135 11.5463 1.00196 10.4556 1.00007 9.35361C0.998162 8.86008 1.03749 8.36726 1.11764 7.88031L6.8788 13.6704C7.01543 13.8084 7.17798 13.9181 7.35707 13.9929C7.53616 14.0676 7.72826 14.1062 7.92228 14.1062C8.11629 14.1062 8.30839 14.0676 8.48748 13.9929C8.66658 13.9181 8.82913 13.8084 8.96575 13.6704L13.6393 8.94108C13.9042 8.66636 14.0523 8.29922 14.0523 7.91714C14.0523 7.53506 13.9042 7.16792 13.6393 6.8932L7.92228 1.11789C8.40813 1.03835 8.89967 0.998926 9.39196 1.00002C11.5995 1.00393 13.7153 1.88576 15.2749 3.45193C16.8344 5.01811 17.7104 7.14065 17.7104 9.35361C17.7052 10.09 17.6065 10.8227 17.4164 11.5341C17.3542 11.7806 17.3567 12.0391 17.4237 12.2843C17.4906 12.5296 17.6198 12.7533 17.7986 12.9337L25 20.1529" stroke="#451241" stroke-linecap="round" stroke-linejoin="round"/>
</svg>
