<svg width="24" height="24" viewBox="0 0 24 24" fill="none" xmlns="http://www.w3.org/2000/svg">
<mask id="path-1-outside-1_1029_41042" maskUnits="userSpaceOnUse" x="0" y="0" width="24" height="24" fill="black">
<rect fill="white" width="24" height="24"/>
<path fill-rule="evenodd" clip-rule="evenodd" d="M23 1H1V23H12.4074V12.4074H23V1ZM22.1852 1.81481H1.81481V22.1852H11.5926V11.5926H22.1852V1.81481Z"/>
<path d="M5.07407 11.5926H1V12.4074H5.07407V11.5926Z"/>
<path d="M9.14815 12.4074H12.4074V11.5926H9.14815V12.4074Z"/>
<path d="M11.5926 8.74074V12.4074H12.4074V8.74074H11.5926Z"/>
<path d="M11.5926 4.66667H12.4074V1H11.5926V4.66667Z"/>
</mask>
<path fill-rule="evenodd" clip-rule="evenodd" d="M23 1H1V23H12.4074V12.4074H23V1ZM22.1852 1.81481H1.81481V22.1852H11.5926V11.5926H22.1852V1.81481Z" fill="#FAFAFA"/>
<path d="M5.07407 11.5926H1V12.4074H5.07407V11.5926Z" fill="#FAFAFA"/>
<path d="M9.14815 12.4074H12.4074V11.5926H9.14815V12.4074Z" fill="#FAFAFA"/>
<path d="M11.5926 8.74074V12.4074H12.4074V8.74074H11.5926Z" fill="#FAFAFA"/>
<path d="M11.5926 4.66667H12.4074V1H11.5926V4.66667Z" fill="#FAFAFA"/>
<path d="M1 1V0.8C0.889543 0.8 0.8 0.889543 0.8 1H1ZM23 1H23.2C23.2 0.889543 23.1105 0.8 23 0.8V1ZM1 23H0.8C0.8 23.1105 0.889543 23.2 1 23.2V23ZM12.4074 23V23.2C12.5179 23.2 12.6074 23.1105 12.6074 23H12.4074ZM23 12.4074V12.6074C23.1105 12.6074 23.2 12.5179 23.2 12.4074H23ZM1.81481 1.81481V1.61481C1.70436 1.61481 1.61481 1.70436 1.61481 1.81481H1.81481ZM22.1852 1.81481H22.3852C22.3852 1.70436 22.2956 1.61481 22.1852 1.61481V1.81481ZM1.81481 22.1852H1.61481C1.61481 22.2956 1.70436 22.3852 1.81481 22.3852V22.1852ZM11.5926 22.1852V22.3852C11.703 22.3852 11.7926 22.2956 11.7926 22.1852H11.5926ZM11.5926 11.5926V11.3926C11.4821 11.3926 11.3926 11.4821 11.3926 11.5926H11.5926ZM22.1852 11.5926V11.7926C22.2956 11.7926 22.3852 11.703 22.3852 11.5926H22.1852ZM1 11.5926V11.3926H0.8V11.5926H1ZM5.07407 11.5926H5.27407V11.3926H5.07407V11.5926ZM1 12.4074H0.8V12.6074H1V12.4074ZM5.07407 12.4074V12.6074H5.27407V12.4074H5.07407ZM9.14815 12.4074H8.94815V12.6074H9.14815V12.4074ZM12.4074 11.5926H12.6074V11.3926H12.4074V11.5926ZM9.14815 11.5926V11.3926H8.94815V11.5926H9.14815ZM11.5926 12.4074H11.3926V12.6074H11.5926V12.4074ZM11.5926 8.74074V8.54074H11.3926V8.74074H11.5926ZM12.4074 8.74074H12.6074V8.54074H12.4074V8.74074ZM11.5926 4.66667H11.3926V4.86667H11.5926V4.66667ZM12.4074 4.66667V4.86667H12.6074V4.66667H12.4074ZM12.4074 1H12.6074V0.8H12.4074V1ZM11.5926 1V0.8H11.3926V1H11.5926ZM1 1.2H23V0.8H1V1.2ZM1.2 23V1H0.8V23H1.2ZM12.4074 22.8H1V23.2H12.4074V22.8ZM12.2074 12.4074V23H12.6074V12.4074H12.2074ZM23 12.2074H12.4074V12.6074H23V12.2074ZM22.8 1V12.4074H23.2V1H22.8ZM1.81481 2.01481H22.1852V1.61481H1.81481V2.01481ZM1.81481 22.3852H11.5926V21.9852H1.81481V22.3852ZM22.1852 11.3926H11.5926V11.7926H22.1852V11.3926ZM21.9852 1.81481V11.5926H22.3852V1.81481H21.9852ZM2.01481 22.1852V1.81481H1.61481V22.1852H2.01481ZM11.7926 22.1852V11.5926H11.3926V22.1852H11.7926ZM1 11.7926H5.07407V11.3926H1V11.7926ZM1.2 12.4074V11.5926H0.8V12.4074H1.2ZM5.07407 12.2074H1V12.6074H5.07407V12.2074ZM5.27407 12.4074V11.5926H4.87407V12.4074H5.27407ZM12.4074 12.2074H9.14815V12.6074H12.4074V12.2074ZM12.2074 11.5926V12.4074H12.6074V11.5926H12.2074ZM9.14815 11.7926H12.4074V11.3926H9.14815V11.7926ZM8.94815 11.5926V12.4074H9.34815V11.5926H8.94815ZM11.7926 12.4074V8.74074H11.3926V12.4074H11.7926ZM12.4074 12.2074H11.5926V12.6074H12.4074V12.2074ZM12.2074 8.74074V12.4074H12.6074V8.74074H12.2074ZM12.4074 8.54074H11.5926V8.94074H12.4074V8.54074ZM11.5926 4.86667H12.4074V4.46667H11.5926V4.86667ZM12.2074 1V4.66667H12.6074V1H12.2074ZM11.5926 1.2H12.4074V0.8H11.5926V1.2ZM11.7926 4.66667V1H11.3926V4.66667H11.7926Z" fill="#FAFAFA" mask="url(#path-1-outside-1_1029_41042)"/>
</svg>
