<svg width="30" height="30" viewBox="0 0 30 30" fill="none" xmlns="http://www.w3.org/2000/svg">
<path fill-rule="evenodd" clip-rule="evenodd" d="M26.3848 16.8281L23.625 17.2559C23.4199 18.041 23.1094 18.791 22.6992 19.4941L24.3809 21.6973C24.498 21.8496 24.4863 22.0723 24.3457 22.207L22.2656 24.3047C22.1309 24.4395 21.9141 24.457 21.7559 24.3457L19.5117 22.6875C18.8086 23.1035 18.0527 23.4141 17.2617 23.6191L16.8984 26.3672C16.875 26.5605 16.7109 26.707 16.5117 26.707L13.5586 26.7188C13.3652 26.7188 13.2012 26.5781 13.1719 26.3848L12.75 23.6309C11.9707 23.4316 11.2207 23.1211 10.5176 22.7109L8.30273 24.3809C8.14453 24.498 7.92773 24.4863 7.79297 24.3457L5.69531 22.2656C5.56055 22.1309 5.54297 21.9141 5.6543 21.7559L7.29492 19.5059C6.87305 18.791 6.55664 18.0234 6.35156 17.2266L3.63281 16.8984C3.43945 16.875 3.29297 16.7109 3.29297 16.5117L3.28125 13.5645C3.28125 13.3711 3.42188 13.207 3.61523 13.1777L6.36914 12.7617C6.58008 11.959 6.90234 11.1973 7.32422 10.4883L5.61914 8.30859C5.49609 8.15625 5.51367 7.93359 5.64844 7.79297L7.73438 5.69531C7.875 5.55469 8.0918 5.54297 8.25 5.66016L10.4766 7.35352C11.1855 6.9375 11.9473 6.62109 12.7441 6.41016L13.1016 3.62695C13.125 3.43359 13.2891 3.28711 13.4883 3.28711L16.4414 3.28125C16.6348 3.28125 16.7988 3.42188 16.8281 3.61523L17.2324 6.41016C18.0059 6.60938 18.7559 6.91406 19.4531 7.32422L21.6914 5.61914C21.8438 5.50195 22.0664 5.51367 22.2012 5.6543L24.2988 7.74023C24.4395 7.875 24.4512 8.09766 24.334 8.25L22.6523 10.4824C23.0742 11.1914 23.3965 11.9531 23.6074 12.75L26.3613 13.1133C26.5547 13.1367 26.7012 13.3008 26.7012 13.5L26.7129 16.4531C26.7188 16.6348 26.5781 16.7988 26.3848 16.8281ZM25.9277 13.834L23.25 13.4824C23.0859 13.459 22.957 13.3418 22.9219 13.1836C22.7168 12.2871 22.3594 11.4434 21.8613 10.6641C21.7734 10.5293 21.7793 10.3477 21.8789 10.2187L23.5137 8.04492L21.9023 6.43945L19.7227 8.09766C19.5938 8.19727 19.418 8.20313 19.2832 8.12109C18.5098 7.64648 17.6777 7.30078 16.8047 7.10742C16.6465 7.07227 16.5293 6.94336 16.5059 6.78516L16.1133 4.06641L13.8281 4.07227L13.4766 6.7793C13.4531 6.94336 13.3359 7.07227 13.1777 7.10742C12.2812 7.3125 11.4375 7.66406 10.6523 8.15625C10.5176 8.24414 10.3359 8.23828 10.207 8.13867L8.03906 6.49219L6.44531 8.09766L8.10352 10.2187C8.20312 10.3477 8.21484 10.5293 8.12695 10.6699C7.62891 11.4492 7.27148 12.2988 7.06641 13.1953C7.03125 13.3535 6.90234 13.4707 6.74414 13.4941L4.06641 13.8984L4.07227 16.166L6.7207 16.4941C6.88477 16.5117 7.01953 16.6348 7.05469 16.7988C7.25391 17.6895 7.60547 18.5391 8.10352 19.3242C8.19141 19.459 8.18555 19.6348 8.08594 19.7637L6.48633 21.9492L8.10352 23.5547L10.2598 21.9258C10.3301 21.873 10.4121 21.8496 10.4941 21.8496C10.5645 21.8496 10.6348 21.8672 10.6992 21.9082C11.4727 22.3887 12.3047 22.7344 13.1836 22.9277C13.3418 22.9629 13.459 23.0918 13.4824 23.25L13.8926 25.9336L16.166 25.9277L16.5234 23.2559C16.5469 23.0918 16.6641 22.9629 16.8223 22.9277C17.707 22.7227 18.5508 22.377 19.3242 21.8906C19.459 21.8027 19.6348 21.8145 19.7637 21.9082L21.9551 23.5195L23.5605 21.9023L21.9258 19.7578C21.8262 19.6289 21.8203 19.4531 21.9023 19.3125C22.3887 18.5391 22.7344 17.7012 22.9336 16.8223C22.9688 16.6641 23.0977 16.5469 23.2559 16.5234L25.9395 16.1074L25.9277 13.834ZM14.9531 19.6758C12.3691 19.6758 10.2656 17.5723 10.2656 14.9883C10.2656 12.4043 12.3691 10.3008 14.9531 10.3008C17.5371 10.3008 19.6406 12.4043 19.6406 14.9883C19.6406 17.5723 17.5371 19.6758 14.9531 19.6758ZM14.9531 11.0801C12.7969 11.0801 11.0449 12.832 11.0449 14.9883C11.0449 17.1445 12.7969 18.8965 14.9531 18.8965C17.1094 18.8965 18.8613 17.1445 18.8613 14.9883C18.8613 12.832 17.1035 11.0801 14.9531 11.0801Z" fill="#FAFAFA"/>
</svg>
