<svg width="24" height="26" viewBox="0 0 24 26" fill="none" xmlns="http://www.w3.org/2000/svg">
<path d="M14.1144 23.804C13.8996 24.1678 13.5911 24.4697 13.2201 24.6796C12.849 24.8895 12.4282 25 12 25C11.5718 25 11.151 24.8895 10.7799 24.6796C10.4089 24.4697 10.1004 24.1678 9.88556 23.804M19.3333 8.20128C19.3333 6.29138 18.5607 4.45971 17.1855 3.1092C15.8102 1.7587 13.9449 1 12 1C10.0551 1 8.18982 1.7587 6.81455 3.1092C5.43928 4.45971 4.66667 6.29138 4.66667 8.20128C4.66667 16.6028 1 19.0032 1 19.0032H23C23 19.0032 19.3333 16.6028 19.3333 8.20128Z" stroke="#FAFAFA" stroke-linecap="round" stroke-linejoin="round"/>
</svg>
