<svg width="98" height="98" viewBox="0 0 98 98" fill="none" xmlns="http://www.w3.org/2000/svg">
<circle cx="49" cy="49" r="45.7333" stroke="#878787" stroke-width="6.53333"/>
<path d="M75.1339 84.932V78.3987C75.1339 74.9332 73.7572 71.6096 71.3067 69.1592C68.8562 66.7087 65.5327 65.332 62.0672 65.332H35.9339C32.4684 65.332 29.1448 66.7087 26.6943 69.1592C24.2438 71.6096 22.8672 74.9332 22.8672 78.3987V84.932" stroke="#878787" stroke-width="6.53333" stroke-linecap="round" stroke-linejoin="round"/>
<path d="M48.9998 52.2661C56.2163 52.2661 62.0664 46.416 62.0664 39.1995C62.0664 31.983 56.2163 26.1328 48.9998 26.1328C41.7833 26.1328 35.9331 31.983 35.9331 39.1995C35.9331 46.416 41.7833 52.2661 48.9998 52.2661Z" stroke="#878787" stroke-width="6.53333" stroke-linecap="round" stroke-linejoin="round"/>
</svg>
