<svg width="22" height="24" viewBox="0 0 22 24" fill="none" xmlns="http://www.w3.org/2000/svg">
<path d="M20.7778 19.2H19.5556V18C19.5556 17.6817 19.4268 17.3765 19.1976 17.1515C18.9684 16.9264 18.6575 16.8 18.3333 16.8C18.0092 16.8 17.6983 16.9264 17.4691 17.1515C17.2399 17.3765 17.1111 17.6817 17.1111 18V19.2H15.8889C15.5647 19.2 15.2539 19.3264 15.0246 19.5515C14.7954 19.7765 14.6667 20.0817 14.6667 20.4C14.6667 20.7183 14.7954 21.0235 15.0246 21.2485C15.2539 21.4736 15.5647 21.6 15.8889 21.6H17.1111V22.8C17.1111 23.1183 17.2399 23.4235 17.4691 23.6485C17.6983 23.8736 18.0092 24 18.3333 24C18.6575 24 18.9684 23.8736 19.1976 23.6485C19.4268 23.4235 19.5556 23.1183 19.5556 22.8V21.6H20.7778C21.1019 21.6 21.4128 21.4736 21.642 21.2485C21.8712 21.0235 22 20.7183 22 20.4C22 20.0817 21.8712 19.7765 21.642 19.5515C21.4128 19.3264 21.1019 19.2 20.7778 19.2ZM12.2222 21.6H3.66667C3.34251 21.6 3.03164 21.4736 2.80243 21.2485C2.57321 21.0235 2.44444 20.7183 2.44444 20.4V3.6C2.44444 3.28174 2.57321 2.97652 2.80243 2.75147C3.03164 2.52643 3.34251 2.4 3.66667 2.4H9.77778V6C9.77778 6.95478 10.1641 7.87045 10.8517 8.54559C11.5394 9.22072 12.472 9.6 13.4444 9.6H17.1111V13.2C17.1111 13.5183 17.2399 13.8235 17.4691 14.0485C17.6983 14.2736 18.0092 14.4 18.3333 14.4C18.6575 14.4 18.9684 14.2736 19.1976 14.0485C19.4268 13.8235 19.5556 13.5183 19.5556 13.2V8.4C19.5556 8.4 19.5556 8.4 19.5556 8.328C19.5428 8.21776 19.5182 8.10916 19.4822 8.004V7.896C19.4235 7.77262 19.3451 7.6592 19.25 7.56L11.9167 0.36C11.8156 0.266659 11.7001 0.189697 11.5744 0.132C11.534 0.125051 11.4927 0.125051 11.4522 0.132C11.3334 0.0696037 11.2057 0.0251064 11.0733 0H3.66667C2.69421 0 1.76158 0.379285 1.07394 1.05442C0.386309 1.72955 0 2.64522 0 3.6V20.4C0 21.3548 0.386309 22.2705 1.07394 22.9456C1.76158 23.6207 2.69421 24 3.66667 24H12.2222C12.5464 24 12.8573 23.8736 13.0865 23.6485C13.3157 23.4235 13.4444 23.1183 13.4444 22.8C13.4444 22.4817 13.3157 22.1765 13.0865 21.9515C12.8573 21.7264 12.5464 21.6 12.2222 21.6ZM12.2222 4.092L15.3878 7.2H13.4444C13.1203 7.2 12.8094 7.07357 12.5802 6.84853C12.351 6.62348 12.2222 6.31826 12.2222 6V4.092ZM6.11111 7.2C5.78696 7.2 5.47608 7.32643 5.24687 7.55147C5.01766 7.77652 4.88889 8.08174 4.88889 8.4C4.88889 8.71826 5.01766 9.02348 5.24687 9.24853C5.47608 9.47357 5.78696 9.6 6.11111 9.6H7.33333C7.65749 9.6 7.96836 9.47357 8.19757 9.24853C8.42679 9.02348 8.55556 8.71826 8.55556 8.4C8.55556 8.08174 8.42679 7.77652 8.19757 7.55147C7.96836 7.32643 7.65749 7.2 7.33333 7.2H6.11111ZM12.2222 16.8H6.11111C5.78696 16.8 5.47608 16.9264 5.24687 17.1515C5.01766 17.3765 4.88889 17.6817 4.88889 18C4.88889 18.3183 5.01766 18.6235 5.24687 18.8485C5.47608 19.0736 5.78696 19.2 6.11111 19.2H12.2222C12.5464 19.2 12.8573 19.0736 13.0865 18.8485C13.3157 18.6235 13.4444 18.3183 13.4444 18C13.4444 17.6817 13.3157 17.3765 13.0865 17.1515C12.8573 16.9264 12.5464 16.8 12.2222 16.8ZM13.4444 12H6.11111C5.78696 12 5.47608 12.1264 5.24687 12.3515C5.01766 12.5765 4.88889 12.8817 4.88889 13.2C4.88889 13.5183 5.01766 13.8235 5.24687 14.0485C5.47608 14.2736 5.78696 14.4 6.11111 14.4H13.4444C13.7686 14.4 14.0795 14.2736 14.3087 14.0485C14.5379 13.8235 14.6667 13.5183 14.6667 13.2C14.6667 12.8817 14.5379 12.5765 14.3087 12.3515C14.0795 12.1264 13.7686 12 13.4444 12Z" fill="#FAFAFA"/>
</svg>
