<svg width="21" height="23" viewBox="0 0 21 23" fill="none" xmlns="http://www.w3.org/2000/svg">
<path d="M2.33333 4.66667H1.16667C0.857247 4.66667 0.5605 4.54375 0.341708 4.32496C0.122915 4.10616 0 3.80942 0 3.5C0 3.19058 0.122915 2.89383 0.341708 2.67504C0.5605 2.45625 0.857247 2.33333 1.16667 2.33333H2.33333V1.16667C2.33333 0.857247 2.45625 0.560501 2.67504 0.341709C2.89383 0.122916 3.19058 0 3.5 0C3.80942 0 4.10617 0.122916 4.32496 0.341709C4.54375 0.560501 4.66667 0.857247 4.66667 1.16667V2.33333H5.83333C6.14275 2.33333 6.4395 2.45625 6.65829 2.67504C6.87708 2.89383 7 3.19058 7 3.5C7 3.80942 6.87708 4.10616 6.65829 4.32496C6.4395 4.54375 6.14275 4.66667 5.83333 4.66667H4.66667V5.83333C4.66667 6.14275 4.54375 6.4395 4.32496 6.65829C4.10617 6.87708 3.80942 7 3.5 7C3.19058 7 2.89383 6.87708 2.67504 6.65829C2.45625 6.4395 2.33333 6.14275 2.33333 5.83333V4.66667Z" fill="#FAFAFA"/>
<path d="M21 7.24002C21.0008 7.10841 20.9756 6.97795 20.9258 6.85611C20.876 6.73427 20.8027 6.62346 20.71 6.53002L16.47 2.29002C16.3766 2.19734 16.2658 2.12401 16.1439 2.07425C16.0221 2.02448 15.8916 1.99926 15.76 2.00002C15.6284 1.99926 15.4979 2.02448 15.3761 2.07425C15.2543 2.12401 15.1435 2.19734 15.05 2.29002L12.22 5.12002L1.29002 16.05C1.19734 16.1435 1.12401 16.2543 1.07425 16.3761C1.02448 16.4979 0.999256 16.6284 1.00002 16.76V21C1.00002 21.2652 1.10537 21.5196 1.29291 21.7071C1.48045 21.8947 1.7348 22 2.00002 22H6.24002C6.37994 22.0076 6.51991 21.9857 6.65084 21.9358C6.78176 21.8858 6.90073 21.8089 7.00002 21.71L17.87 10.78L20.71 8.00002C20.8013 7.9031 20.8757 7.79155 20.93 7.67002C20.9397 7.59031 20.9397 7.50973 20.93 7.43002C20.9347 7.38347 20.9347 7.33657 20.93 7.29002L21 7.24002ZM5.83002 20H3.00002V17.17L12.93 7.24002L15.76 10.07L5.83002 20ZM17.17 8.66002L14.34 5.83002L15.76 4.42002L18.58 7.24002L17.17 8.66002Z" fill="#FAFAFA"/>
</svg>
