<svg width="22" height="27" viewBox="0 0 22 27" fill="none" xmlns="http://www.w3.org/2000/svg">
<path d="M3.33333 4.66667H2.16667C1.85725 4.66667 1.5605 4.54375 1.34171 4.32496C1.12292 4.10616 1 3.80942 1 3.5C1 3.19058 1.12292 2.89383 1.34171 2.67504C1.5605 2.45625 1.85725 2.33333 2.16667 2.33333H3.33333V1.16667C3.33333 0.857247 3.45625 0.560501 3.67504 0.341709C3.89383 0.122916 4.19058 0 4.5 0C4.80942 0 5.10617 0.122916 5.32496 0.341709C5.54375 0.560501 5.66667 0.857247 5.66667 1.16667V2.33333H6.83333C7.14275 2.33333 7.4395 2.45625 7.65829 2.67504C7.87708 2.89383 8 3.19058 8 3.5C8 3.80942 7.87708 4.10616 7.65829 4.32496C7.4395 4.54375 7.14275 4.66667 6.83333 4.66667H5.66667V5.83333C5.66667 6.14275 5.54375 6.4395 5.32496 6.65829C5.10617 6.87708 4.80942 7 4.5 7C4.19058 7 3.89383 6.87708 3.67504 6.65829C3.45625 6.4395 3.33333 6.14275 3.33333 5.83333V4.66667Z" fill="#FAFAFA"/>
<path d="M21 6L10 17" stroke="#FAFAFA" stroke-width="2" stroke-linecap="round" stroke-linejoin="round"/>
<path d="M21 6L14 26L10 17L1 13L21 6Z" stroke="#FAFAFA" stroke-width="2" stroke-linecap="round" stroke-linejoin="round"/>
</svg>
